<svg version="1.1" id="Layer_1" xmlns="http://www.w3.org/2000/svg" xmlns:xlink="http://www.w3.org/1999/xlink" x="0px" y="0px"
	 width="100%" viewBox="0 0 1200 1800" enable-background="new 0 0 1200 1800" xml:space="preserve">
<path fill="#000000" opacity="1.000000" stroke="none" 
	d="
M529.000000,1801.000000 
	C352.666687,1801.000000 176.833389,1801.000000 1.000071,1801.000000 
	C1.000047,1201.000122 1.000047,601.000305 1.000024,1.000312 
	C400.999786,1.000208 800.999573,1.000208 1200.999512,1.000104 
	C1200.999756,600.999695 1200.999756,1200.999390 1200.999878,1800.999512 
	C977.166687,1801.000000 753.333313,1801.000000 529.000000,1801.000000 
M660.693542,937.700867 
	C660.554016,937.588623 660.414429,937.476318 660.734619,936.838379 
	C670.532166,925.953247 667.806030,906.314636 660.770691,895.116150 
	C651.623718,880.556519 642.683716,865.829163 634.476257,850.727417 
	C626.025635,835.178223 618.538696,819.104126 610.678284,803.235840 
	C607.177917,796.169495 603.795715,789.044678 599.980713,781.163086 
	C595.443420,790.790894 591.369385,799.719666 587.057922,808.532166 
	C573.273132,836.707336 559.663208,864.968567 541.732788,890.884766 
	C535.801147,899.458313 532.323792,908.913757 532.846436,919.785706 
	C533.189697,926.926575 536.181824,932.664673 540.351135,938.631958 
	C530.101929,936.479980 520.527405,936.117981 510.980194,938.500122 
	C487.892517,944.260498 471.639038,959.879211 456.178650,976.616638 
	C456.017914,976.790649 456.158691,977.243286 456.170410,977.557800 
	C462.715668,976.038757 469.206787,973.557983 475.816650,973.185608 
	C493.784729,972.173401 508.553284,979.764587 517.866455,994.691162 
	C527.046387,1009.404419 533.960999,1025.531128 541.780579,1040.863403 
	C536.430908,1044.746460 531.885315,1047.640869 527.807983,1051.089111 
	C519.183289,1058.382690 512.703552,1066.961060 512.992737,1079.056274 
	C513.061646,1081.937866 513.670410,1083.480957 517.271484,1084.176147 
	C530.959473,1086.818481 544.188416,1090.781250 556.544678,1097.732910 
	C571.360535,1106.068237 584.379700,1124.073486 580.041443,1141.640991 
	C576.904236,1154.344727 570.402161,1164.297974 558.385376,1170.166626 
	C547.193054,1175.632935 536.274841,1173.024536 531.368103,1167.071411 
	C536.315552,1166.747314 542.028015,1166.867920 547.549377,1165.898926 
	C556.493347,1164.329102 564.739685,1156.281616 565.986206,1146.114624 
	C567.225281,1136.009155 562.080872,1126.734619 553.258850,1121.985229 
	C543.227417,1116.584717 532.645569,1115.640991 521.877197,1118.163696 
	C510.016144,1120.942261 500.083466,1127.054565 495.183807,1138.794189 
	C492.506012,1145.210327 491.375244,1152.031860 492.881104,1159.265015 
	C494.735352,1168.171387 494.489166,1177.674927 497.365051,1186.170776 
	C501.549316,1198.531860 506.946869,1210.639038 513.188293,1222.114258 
	C526.203430,1246.043091 544.259399,1266.374756 561.611328,1287.174316 
	C569.667908,1296.831787 577.537781,1306.657593 585.163147,1316.657959 
	C590.422974,1323.556274 595.118225,1330.885010 600.152893,1338.146973 
	C603.820129,1332.495361 606.931335,1326.744995 610.933838,1321.701904 
	C626.284180,1302.360352 641.848450,1283.186890 657.471008,1264.063477 
	C672.451477,1245.725952 686.282227,1226.608154 695.925598,1204.882202 
	C704.113708,1186.434814 708.944153,1167.154541 706.984253,1146.698242 
	C706.267944,1139.221680 702.937744,1132.612183 697.322021,1128.067505 
	C681.918518,1115.602051 664.896179,1113.138794 646.775696,1122.050781 
	C637.514343,1126.605835 632.707458,1136.203735 634.006226,1147.115601 
	C634.976257,1155.266113 643.419189,1164.307251 652.443542,1165.891846 
	C658.015930,1166.870239 663.791626,1166.690063 669.169495,1167.011841 
	C663.977539,1171.750366 657.290466,1174.252686 649.859131,1172.902466 
	C629.692749,1169.238403 617.474609,1148.731445 619.236084,1131.400024 
	C621.151611,1112.551758 634.136108,1101.343628 650.287720,1094.239502 
	C661.595947,1089.265747 673.798462,1086.325317 686.573425,1082.159790 
	C689.287903,1061.434692 673.242371,1051.860962 659.093201,1041.496582 
	C661.490723,1035.965332 663.965820,1030.852783 665.953003,1025.557007 
	C671.552368,1010.635132 677.837402,996.090210 690.217651,985.373230 
	C701.020264,976.021851 713.343384,970.862061 728.003052,973.960815 
	C733.298279,975.080017 738.554749,976.382751 744.374512,977.727905 
	C743.591919,976.570374 743.196899,975.667908 742.534302,975.054321 
	C734.171875,967.309631 726.320068,958.874390 717.246582,952.070618 
	C704.712585,942.672058 690.608093,936.324341 674.320251,937.025818 
	C669.897522,937.216187 665.488281,937.721130 660.693542,937.700867 
M753.303284,1313.935425 
	C774.281616,1305.400146 795.524170,1297.453735 816.175781,1288.190063 
	C846.333252,1274.662354 874.995544,1258.240112 901.578918,1238.576538 
	C917.222107,1227.005249 932.449646,1214.691040 946.661499,1201.422729 
	C958.285828,1190.570190 970.325195,1180.952271 984.904602,1174.510254 
	C1000.577209,1167.585205 1016.621887,1164.774780 1033.501709,1169.000366 
	C1038.544434,1170.262695 1043.556152,1171.648682 1048.838989,1173.046143 
	C1018.120605,1100.318848 1021.701050,1028.906494 1053.985718,957.709900 
	C1052.406982,958.347595 1051.504272,958.680054 1050.630005,959.075378 
	C1049.888794,959.410522 1049.161499,959.786072 1048.460083,960.198242 
	C1019.184448,977.399597 988.104248,986.758301 953.694580,983.097595 
	C935.055481,981.114685 917.840088,975.219849 902.112183,965.433289 
	C881.334045,952.504272 864.977478,934.864990 850.961182,914.922363 
	C834.968445,892.167664 823.768982,866.963806 813.216492,841.447876 
	C803.136536,817.074707 793.482422,792.525818 783.539001,768.095642 
	C775.179016,747.556030 766.606018,727.103088 758.248901,706.562256 
	C749.711060,685.577454 741.403015,664.499023 732.844482,643.522766 
	C723.671631,621.040771 714.235107,598.666260 705.076294,576.178650 
	C694.701172,550.704224 684.578186,525.127075 674.214783,499.647797 
	C662.265564,470.269958 650.152283,440.958893 638.217651,411.575256 
	C637.715088,410.337982 637.842957,408.428162 638.456055,407.230255 
	C640.521973,403.193726 643.006287,399.374237 645.212341,395.406036 
	C661.070496,366.880249 674.617004,337.591156 678.174622,304.509155 
	C679.551086,291.709351 678.791077,279.464081 675.122009,267.160156 
	C667.981140,243.213745 654.433899,222.870605 639.635742,203.255981 
	C632.445984,193.726059 624.742676,184.561478 616.907166,175.548645 
	C611.708740,169.569183 605.863953,164.151718 599.581665,157.741028 
	C588.970886,169.794861 578.797546,181.043472 568.969604,192.586075 
	C552.866699,211.498322 538.872620,231.862396 529.141296,254.813126 
	C524.311523,266.203766 520.375977,278.087280 521.092102,290.731812 
	C521.618774,300.030548 522.570312,309.350342 524.072754,318.539734 
	C527.667786,340.528259 536.903137,360.615051 546.355408,380.503479 
	C550.801270,389.857910 556.722168,398.506470 561.811462,407.566528 
	C562.383667,408.585083 562.295593,410.364655 561.831482,411.516418 
	C555.241516,427.871704 548.563599,444.191803 541.846924,460.495728 
	C533.338257,481.149719 524.694153,501.748260 516.257568,522.431580 
	C507.701172,543.408875 499.408722,564.493835 490.850403,585.470337 
	C481.005249,609.600952 470.907227,633.628479 461.081085,657.766724 
	C450.710297,683.242798 440.626312,708.835693 430.241089,734.305786 
	C419.300354,761.138062 407.936066,787.799133 397.154236,814.694336 
	C386.299805,841.770569 376.680176,869.446655 361.575104,894.530029 
	C353.042145,908.699768 343.598846,922.543335 332.931824,935.151489 
	C318.549072,952.151611 301.175751,965.812500 280.207123,974.450684 
	C267.128113,979.838562 253.590652,983.274963 239.581879,983.800720 
	C229.770248,984.168945 219.816193,983.208984 210.053192,981.895081 
	C189.383667,979.113525 170.384964,971.376953 152.426224,960.943909 
	C150.533524,959.844360 148.559265,958.885132 145.777023,957.413391 
	C178.465775,1029.080200 181.749603,1100.578613 151.064148,1173.384644 
	C165.002640,1168.890259 178.040787,1165.695923 192.169495,1167.819092 
	C211.316513,1170.696289 227.677628,1179.261963 242.298752,1191.067505 
	C258.533508,1204.176147 273.459503,1218.907471 289.716766,1231.985718 
	C310.005341,1248.307007 332.102631,1262.158203 355.327362,1273.880737 
	C376.024994,1284.327759 397.212219,1293.870850 418.526642,1303.012573 
	C443.991028,1313.934326 470.444122,1322.153320 497.297516,1328.927979 
	C513.323730,1332.971069 529.498474,1336.465576 545.692871,1339.784790 
	C553.822510,1341.451050 562.145508,1342.174316 570.381042,1343.323975 
	C569.667358,1342.046143 568.793701,1341.349976 567.800903,1341.055664 
	C546.248657,1334.666870 524.429443,1329.063232 503.184570,1321.782471 
	C476.713409,1312.710815 451.814941,1300.065674 428.279480,1284.817139 
	C411.981171,1274.257568 397.603394,1261.417847 384.785400,1246.996216 
	C378.027710,1239.393188 372.202667,1230.748169 367.144440,1221.894775 
	C358.213501,1206.262939 352.665619,1189.464722 350.773193,1171.296875 
	C349.061066,1154.860229 349.788239,1138.654175 353.828369,1122.874146 
	C357.546326,1108.352539 362.756256,1094.163330 368.045471,1080.104736 
	C377.842743,1054.063721 388.135864,1028.208618 398.301697,1002.307251 
	C406.460205,981.520386 414.811829,960.809265 422.940582,940.010925 
	C433.422394,913.191956 443.712799,886.298340 454.188843,859.477112 
	C462.371521,838.527649 470.776184,817.664856 478.965454,796.717896 
	C489.391571,770.049316 499.637054,743.309998 510.079163,716.647766 
	C518.281433,695.704529 526.744751,674.863586 534.945557,653.919800 
	C544.795410,628.764465 554.448608,603.532104 564.264282,578.363220 
	C572.670776,556.807556 581.193665,535.297241 589.650085,513.760986 
	C593.029663,505.154114 596.369324,496.531586 600.053833,487.078278 
	C601.287292,490.445984 602.112549,492.854645 603.045105,495.221039 
	C611.350403,516.296082 619.724854,537.344055 627.980469,558.438538 
	C637.708618,583.295532 647.294617,608.208008 657.024902,633.064026 
	C665.282837,654.158813 673.711853,675.186646 681.967773,696.282288 
	C691.695251,721.138123 701.262390,746.056885 711.002319,770.907898 
	C719.918823,793.657898 729.043579,816.326294 737.947998,839.081055 
	C748.264282,865.443726 758.400391,891.876831 768.687744,918.250977 
	C780.093262,947.491699 791.559326,976.708984 803.039673,1005.920471 
	C813.751953,1033.177612 824.494019,1060.423096 835.266357,1087.656616 
	C846.026062,1114.858032 852.563477,1142.654419 849.132385,1172.268433 
	C847.598694,1185.505249 844.243347,1198.124634 838.893250,1210.154907 
	C824.324829,1242.913818 799.422180,1266.708252 769.997559,1285.727661 
	C754.396973,1295.811523 737.359863,1303.773193 720.611328,1311.956055 
	C698.872131,1322.577271 675.811096,1329.727173 652.489624,1336.001953 
	C644.495605,1338.152954 636.470764,1340.189209 628.459961,1342.277954 
	C647.765137,1342.865601 710.679565,1328.884644 753.303284,1313.935425 
M851.402466,1390.956421 
	C858.598206,1389.304321 865.739563,1386.598145 873.001160,1386.223999 
	C887.185974,1385.492798 900.523499,1390.232300 912.854919,1396.643188 
	C924.778442,1402.842163 935.872681,1410.636597 946.854675,1417.435059 
	C946.903870,1417.804321 946.981323,1416.939819 946.668152,1416.253662 
	C942.463135,1407.039307 936.544495,1399.188232 927.693115,1394.013672 
	C917.149719,1387.849976 906.366089,1382.097656 895.817871,1375.941895 
	C888.143921,1371.463745 880.463806,1366.869385 875.978516,1358.744263 
	C901.073059,1344.175049 927.411560,1333.683838 956.820618,1331.441040 
	C951.908875,1328.807373 946.347839,1327.107910 944.238464,1320.980103 
	C966.983398,1322.995850 989.097412,1322.683472 1010.906860,1313.511597 
	C1006.147644,1310.917847 1002.543396,1308.953491 998.939087,1306.989136 
	C1000.923767,1305.298096 1002.478699,1305.022339 1003.952209,1304.511719 
	C1023.303833,1297.804321 1041.660034,1289.023804 1058.747681,1277.713867 
	C1076.503662,1265.961304 1092.977661,1252.777832 1107.115479,1236.625610 
	C1117.441650,1224.827881 1126.431152,1212.195801 1133.729004,1198.462524 
	C1142.279663,1182.371826 1148.037598,1165.260864 1151.221313,1147.158569 
	C1153.305664,1135.307739 1154.007568,1123.504150 1151.765869,1111.935425 
	C1148.275024,1093.920898 1140.350464,1078.137695 1125.201050,1066.529785 
	C1115.639282,1059.203369 1105.052002,1054.718994 1093.290771,1054.167603 
	C1077.260620,1053.416016 1064.229736,1059.660400 1055.685425,1073.821167 
	C1047.393188,1087.564087 1043.974731,1106.286499 1054.800415,1119.682617 
	C1062.619141,1129.357666 1081.049683,1136.172363 1091.957764,1121.625244 
	C1096.999390,1114.901611 1097.773315,1102.969116 1091.041992,1097.243286 
	C1081.933105,1089.494995 1071.194458,1088.828857 1059.838623,1096.911499 
	C1059.604248,1096.734253 1059.249756,1096.606812 1059.152710,1096.372681 
	C1054.623535,1085.452393 1063.774170,1067.450562 1079.121582,1067.237427 
	C1095.532959,1067.009644 1107.622192,1075.926636 1115.909424,1089.709351 
	C1123.911499,1103.017944 1123.833374,1117.425171 1118.680786,1131.424927 
	C1108.864990,1158.094971 1091.422241,1178.536865 1066.135498,1191.993652 
	C1049.759766,1200.708374 1031.998413,1205.815430 1014.671082,1212.096558 
	C1002.357361,1216.560303 990.245544,1221.664551 978.335449,1227.119995 
	C973.028137,1229.550903 968.438599,1233.548828 962.865540,1237.275391 
	C964.394836,1233.527344 965.419067,1230.207153 967.057983,1227.224609 
	C968.750793,1224.143677 971.041199,1221.391235 973.070190,1218.495239 
	C947.145325,1234.526855 923.460754,1252.631226 907.127808,1279.533325 
	C907.560364,1274.134644 907.992981,1268.735962 908.428772,1263.296631 
	C908.059204,1263.604004 907.484680,1263.937256 907.100891,1264.421753 
	C896.422363,1277.901978 887.994019,1292.613037 883.029602,1309.153198 
	C881.188965,1315.286011 880.286987,1321.758789 877.930603,1327.667236 
	C871.622009,1343.485596 860.219910,1354.366211 844.529602,1361.147705 
	C833.241882,1366.026367 820.093567,1364.387695 811.515564,1355.240479 
	C801.766602,1344.844727 805.965515,1326.703003 816.797180,1320.593018 
	C823.982300,1316.540283 830.960632,1316.055420 838.428833,1319.675537 
	C839.909851,1320.393433 842.818909,1320.403564 843.864197,1319.436890 
	C854.603638,1309.505737 858.086243,1296.528198 859.292419,1282.083984 
	C857.317444,1282.914185 855.967651,1283.416504 854.673645,1284.035522 
	C835.272766,1293.317261 816.047302,1302.995728 796.378113,1311.667969 
	C790.720337,1314.162354 788.518860,1317.853882 787.056946,1322.933960 
	C786.702942,1324.164307 786.835327,1325.525757 786.608093,1326.802734 
	C783.803528,1342.564453 789.161072,1358.535156 801.842773,1367.587646 
	C808.801697,1372.554932 812.977844,1377.754517 813.865112,1385.830322 
	C814.244995,1389.287720 814.167236,1392.827515 813.967957,1396.311035 
	C812.862915,1415.624878 798.001831,1430.480225 777.650024,1427.784668 
	C771.978699,1427.033447 765.868286,1424.864990 763.224976,1418.193848 
	C763.890442,1418.140991 764.351501,1417.963989 764.511353,1418.112183 
	C769.146912,1422.404907 774.568726,1422.093750 779.564087,1419.656738 
	C786.289795,1416.375488 788.095459,1410.083252 786.916077,1403.128784 
	C785.990479,1397.671265 782.211609,1394.442261 776.927490,1392.945923 
	C770.270813,1391.060791 763.752625,1391.568481 757.339478,1394.009033 
	C736.355774,1401.994629 733.553467,1425.918457 746.257141,1440.412231 
	C755.796570,1451.295898 769.438660,1451.961426 782.899170,1450.535156 
	C792.009827,1449.569458 799.955078,1445.488403 806.911438,1438.952148 
	C806.767883,1449.565796 812.581360,1456.080688 820.451782,1460.693604 
	C835.030273,1469.237915 851.716492,1470.482300 867.921875,1472.870850 
	C883.250061,1475.130127 898.732544,1476.345703 914.149902,1477.994873 
	C930.889038,1479.785156 947.423889,1482.788940 963.031494,1489.160400 
	C973.850281,1493.576904 984.218872,1499.184204 990.953552,1509.469482 
	C993.022278,1512.629028 994.998718,1515.848999 997.017395,1519.041382 
	C996.585327,1514.863159 995.322449,1511.141846 993.993408,1507.444214 
	C983.636047,1478.628418 966.505737,1454.790771 940.996155,1437.640137 
	C917.556396,1421.881104 891.900879,1413.549072 863.254822,1418.062744 
	C855.834534,1419.231689 848.809509,1421.823730 843.731567,1427.810669 
	C836.869507,1435.901245 837.039978,1449.890381 850.176331,1452.984375 
	C854.169617,1453.925049 858.368103,1453.994629 862.875366,1454.509155 
	C852.906860,1459.815430 843.084229,1461.573364 833.590637,1454.782593 
	C824.396790,1448.206543 820.205811,1438.254639 821.271790,1427.536987 
	C823.064880,1409.508667 833.934265,1397.658447 851.402466,1390.956421 
M341.000000,1286.612061 
	C341.692291,1296.496216 345.510864,1305.385498 350.416504,1313.723267 
	C354.503326,1320.669067 356.637878,1321.024780 364.135437,1318.335083 
	C372.061005,1315.491943 383.657776,1318.651855 388.474640,1324.967285 
	C394.950867,1333.458130 395.919739,1343.984497 390.980560,1352.192383 
	C386.153534,1360.213989 373.311615,1366.276733 364.098755,1363.879395 
	C343.122223,1358.420898 327.734161,1345.758667 321.261902,1324.910522 
	C316.931458,1310.961670 313.622101,1296.770020 305.979950,1284.144287 
	C301.592133,1276.895142 296.886292,1269.838501 292.323639,1262.695190 
	C291.913330,1262.919312 291.502991,1263.143311 291.092651,1263.367310 
	C291.003815,1268.225952 295.446381,1273.206665 290.869293,1278.834351 
	C283.851715,1265.195679 273.990143,1254.752319 263.404633,1244.978149 
	C252.929245,1235.305786 241.638260,1226.702393 228.775345,1219.358276 
	C231.739212,1225.488037 234.270737,1230.723633 236.802277,1235.959229 
	C236.336472,1236.217407 235.870682,1236.475586 235.404892,1236.733887 
	C227.259552,1229.128784 217.705368,1223.858643 207.369339,1220.024170 
	C187.395035,1212.613892 167.343704,1205.411499 147.351227,1198.049927 
	C131.943848,1192.376587 118.305992,1183.670288 106.841568,1172.061035 
	C100.740906,1165.883301 95.506790,1158.629761 90.937958,1151.211304 
	C84.256310,1140.362061 78.730721,1128.794922 78.045654,1115.721924 
	C77.051056,1096.742065 85.153458,1081.924438 101.243973,1072.618286 
	C113.820923,1065.344238 126.516258,1062.376709 138.073898,1077.592529 
	C142.348251,1083.219604 143.302261,1091.935791 139.911697,1097.141602 
	C133.873993,1090.869751 126.588219,1090.004639 118.484985,1091.966675 
	C108.188713,1094.459717 100.834389,1105.327026 104.291794,1114.477539 
	C107.131905,1121.994629 111.879242,1128.603394 120.619247,1129.891846 
	C130.141129,1131.295654 138.538696,1127.852905 144.586853,1120.634155 
	C151.996750,1111.790039 153.948395,1101.180908 150.951370,1090.000732 
	C147.468628,1077.008301 141.422974,1065.635376 128.932526,1059.010864 
	C114.583313,1051.400269 99.990181,1052.661011 86.086662,1059.575684 
	C60.357906,1072.371460 49.134312,1094.848755 47.118053,1122.390015 
	C45.731613,1141.328369 50.544613,1159.353760 56.889961,1177.120972 
	C65.756920,1201.948975 79.828186,1223.511230 98.027855,1242.170288 
	C108.728729,1253.141113 120.491272,1263.416504 133.085297,1272.107788 
	C146.360641,1281.269409 161.025909,1288.498535 175.412827,1295.935669 
	C183.463303,1300.097168 192.180893,1302.968140 201.533493,1306.804199 
	C197.397263,1309.039062 193.649536,1311.064087 188.902054,1313.629272 
	C211.077332,1322.548828 233.178207,1322.901001 255.704773,1321.157471 
	C253.728973,1327.320435 247.641769,1328.485596 242.544434,1331.821777 
	C272.684906,1333.598877 298.955048,1344.323364 324.067108,1358.779419 
	C319.380554,1366.738647 311.892181,1371.356201 304.421539,1375.859375 
	C291.906677,1383.403320 278.921387,1390.209106 266.731049,1398.232544 
	C259.693939,1402.864502 255.256790,1410.193237 252.529877,1419.641846 
	C265.871613,1407.775146 279.788055,1399.142456 295.223267,1392.975708 
	C305.033417,1389.056274 315.171844,1385.662109 325.725586,1386.243774 
	C333.821869,1386.690063 342.135895,1388.413086 349.758514,1391.196411 
	C368.802765,1398.150391 385.414093,1419.293579 375.977234,1442.555054 
	C369.575531,1458.334839 351.556274,1464.320068 337.462860,1454.000000 
	C339.906769,1454.000000 342.238861,1454.021118 344.570526,1453.996582 
	C357.869080,1453.856934 364.357727,1442.517700 358.418213,1430.973511 
	C354.815521,1423.971436 348.107727,1420.936401 340.937531,1419.038940 
	C328.005798,1415.616333 314.989807,1416.303101 302.046478,1419.021973 
	C281.262817,1423.387817 262.940369,1432.937256 246.938324,1446.675049 
	C227.386887,1463.460083 214.211868,1484.753662 205.120636,1508.679688 
	C204.053131,1511.489136 203.554626,1514.514771 202.792374,1517.440186 
	C205.265518,1515.311279 206.523239,1512.719116 208.163574,1510.397339 
	C218.178864,1496.221069 233.116333,1489.771606 248.958786,1485.051147 
	C271.485443,1478.338745 294.937103,1477.149780 318.055664,1473.962158 
	C333.470856,1471.836792 349.028809,1470.190796 364.163757,1466.750366 
	C378.400116,1463.514038 391.224426,1457.175781 393.391449,1439.944824 
	C408.874359,1451.249756 419.811462,1452.527100 434.673523,1449.963623 
	C445.149017,1448.156860 454.153076,1444.026855 458.322845,1433.201416 
	C462.629303,1422.020996 462.810974,1411.158325 454.251129,1401.887207 
	C445.547943,1392.460938 434.411713,1389.855347 422.162567,1393.099487 
	C415.235504,1394.934082 411.514771,1402.471069 413.056488,1410.542847 
	C413.964020,1415.294189 420.551727,1422.132202 426.462067,1421.017090 
	C429.549347,1420.434570 432.669861,1420.028198 436.772980,1419.386108 
	C435.226074,1421.076660 434.286163,1422.624023 432.918976,1423.517334 
	C419.256287,1432.442627 401.887665,1427.830933 393.040375,1415.945923 
	C384.961456,1405.093018 384.533539,1392.835449 387.364197,1380.142212 
	C388.311829,1375.892944 389.713989,1372.280518 394.496216,1370.686157 
	C396.671906,1369.960571 398.505890,1367.915771 400.241119,1366.211060 
	C412.668121,1354.002563 416.466125,1339.210571 412.677979,1322.458618 
	C411.704010,1318.151611 410.230652,1314.271362 404.922760,1312.190918 
	C391.651733,1306.988770 378.677551,1300.987305 365.775116,1294.901855 
	C357.504364,1291.000977 349.572693,1286.380981 341.000000,1281.823486 
	C341.000000,1283.554932 341.000000,1284.658813 341.000000,1286.612061 
M386.971680,791.329590 
	C394.298676,779.385376 397.304718,766.311096 398.064148,751.844116 
	C394.359741,756.236328 391.310394,759.851929 388.261047,763.467468 
	C387.935272,761.192383 388.669128,759.637512 388.993469,758.001465 
	C392.035065,742.658813 395.529053,727.380920 397.858093,711.928528 
	C400.424469,694.901917 405.498444,678.735657 412.478027,663.147339 
	C418.441528,649.828369 426.288025,637.556824 435.996429,626.636475 
	C442.412384,619.419556 449.823273,613.134216 459.329224,610.455322 
	C463.062683,609.403137 465.374115,608.211304 465.339020,603.706421 
	C463.699768,604.081787 462.136627,604.395081 460.597198,604.799011 
	C442.755890,609.480469 429.820740,621.739624 416.963409,633.792236 
	C410.196136,640.135925 404.112244,647.411804 398.725281,654.982300 
	C387.793121,670.345642 377.140320,685.943848 367.180054,701.947937 
	C361.987579,710.291199 358.511871,719.702942 354.153839,728.856628 
	C353.745483,727.157410 353.231323,725.623718 353.040405,724.050781 
	C352.854645,722.520508 353.000031,720.950073 353.000031,719.397278 
	C352.533783,719.319153 352.067566,719.241089 351.601318,719.163025 
	C343.852081,735.419983 338.988129,752.582092 336.410034,771.755920 
	C334.854095,767.202576 333.679749,763.765869 332.184479,759.389954 
	C330.882416,762.385132 329.583466,764.475952 329.060608,766.745483 
	C327.542908,773.333801 325.706757,779.944580 325.182800,786.639404 
	C324.644897,793.512878 325.436768,800.499573 325.783783,807.429871 
	C326.019989,812.147156 328.114960,817.483704 326.571686,821.451660 
	C320.591248,836.828064 311.961456,850.810913 299.494965,861.909058 
	C284.037567,875.669800 266.173492,882.923218 245.061752,881.047546 
	C229.939285,879.704041 218.144257,872.623718 209.930756,860.245178 
	C199.868454,845.080505 200.118988,829.775146 212.665802,817.991394 
	C218.110916,812.877563 224.776947,809.658325 232.772217,808.963196 
	C229.425339,811.855835 226.173615,814.104553 223.621048,816.975037 
	C215.067017,826.593689 216.372070,840.143799 228.411575,846.166809 
	C235.674850,849.800354 242.800461,849.544861 250.093094,847.395874 
	C265.621521,842.819885 277.613098,833.131775 288.353638,821.294556 
	C301.617004,806.677063 310.931763,789.919739 317.175354,771.377625 
	C323.710327,751.970093 326.362274,732.116272 325.216522,711.509155 
	C324.333740,695.631226 321.552338,680.295898 316.932861,665.213318 
	C315.039978,659.033020 312.557495,653.033325 310.343262,646.951477 
	C309.904083,647.094421 309.464874,647.237366 309.025696,647.380249 
	C309.683777,650.933899 310.693237,654.463684 310.936279,658.045532 
	C311.780792,670.490662 308.615601,682.106018 303.310181,693.286194 
	C294.061340,712.776428 280.242188,728.970398 265.766663,744.537903 
	C250.269516,761.204102 233.746719,776.914429 218.176041,793.515076 
	C209.711716,802.539307 201.742828,812.152710 194.566223,822.224182 
	C187.760483,831.775146 183.023819,842.559448 186.107193,854.834839 
	C187.164474,859.044067 189.455154,862.943481 191.359558,867.399048 
	C186.313049,867.399048 181.036682,866.599060 176.101334,867.556702 
	C163.777954,869.947693 153.788315,876.706421 145.468231,886.015686 
	C135.144348,897.566833 129.479309,910.116150 135.966614,925.780457 
	C141.252243,938.542969 152.128845,947.905273 167.011566,948.105164 
	C177.243118,948.242615 186.076569,945.186829 193.993057,938.993713 
	C202.151398,932.611389 206.973892,917.315308 195.362457,908.783691 
	C185.944901,901.864075 171.467758,906.091614 168.339905,917.206848 
	C167.813812,919.076355 167.803192,921.090942 167.554413,923.038513 
	C167.096283,923.000000 166.638153,922.961426 166.180023,922.922913 
	C166.180023,918.759155 165.293213,914.354553 166.346542,910.476929 
	C169.487091,898.915466 183.138016,888.083740 195.085449,887.020630 
	C212.422729,885.477844 225.647583,892.686096 236.069748,906.188049 
	C241.688614,913.467346 244.992142,921.476685 247.198013,930.416931 
	C250.007141,941.802063 258.463165,946.551514 268.114014,946.699829 
	C276.899750,946.834839 284.040833,942.086121 288.079987,933.568359 
	C293.239838,922.687317 292.816498,912.851013 282.021820,903.572754 
	C300.827087,907.375305 314.785980,915.783325 325.029816,931.476501 
	C329.512207,925.336365 333.683289,919.354431 338.169342,913.618835 
	C339.802307,911.531128 339.731567,910.114563 337.945679,908.456360 
	C333.228943,904.076721 328.408020,899.800842 323.859039,895.253113 
	C321.941071,893.335693 319.474609,890.964355 319.209595,888.582153 
	C318.376770,881.095947 319.018036,873.622131 321.885651,866.432617 
	C326.439880,855.014465 330.752563,843.499878 335.095184,832.213745 
	C353.241699,830.942749 376.087067,817.682251 381.972717,804.985657 
	C378.019745,805.702759 374.271698,806.382751 371.810455,806.829224 
	C376.389984,802.210083 381.474731,797.081360 386.971680,791.329590 
M857.964600,741.711914 
	C854.539856,733.605713 853.264893,724.524719 846.730469,717.679749 
	C846.730469,720.101135 846.730469,722.522461 846.730469,725.541626 
	C845.494934,724.822388 844.396606,724.576050 844.083496,723.941956 
	C839.186096,714.022461 834.809937,703.822021 829.486145,694.141357 
	C817.069092,671.562622 801.768616,650.925171 783.731384,632.611145 
	C774.776306,623.518616 764.215149,615.833679 753.653198,608.569702 
	C748.192017,604.813721 741.142273,603.367554 734.810242,600.877808 
	C734.443970,601.519165 734.077698,602.160461 733.711426,602.801819 
	C735.252502,604.446045 736.522522,607.062134 738.377991,607.579712 
	C752.374634,611.484314 761.596130,621.204285 770.072632,632.192200 
	C778.808411,643.516418 785.601746,655.884644 790.970398,669.055725 
	C797.135254,684.180237 801.186646,699.863647 803.054871,716.129456 
	C803.942078,723.854126 805.177917,731.558105 806.685425,739.186584 
	C808.108521,746.388184 810.094910,753.478577 811.833496,760.617859 
	C811.647217,760.773621 811.460938,760.929321 811.274597,761.085083 
	C808.292725,757.485840 805.310852,753.886597 801.648743,749.466309 
	C803.794006,771.732605 808.575134,791.454651 829.412598,804.732544 
	C824.707397,804.033752 821.531250,803.562012 818.167358,803.062439 
	C818.503296,803.694397 818.674133,804.161621 818.963135,804.538147 
	C829.020447,817.643494 841.913147,826.252747 858.376404,828.922913 
	C861.438354,829.419495 864.558716,829.406006 865.928223,832.699646 
	C869.063110,840.239197 871.992432,847.863892 875.050415,855.435791 
	C878.843872,864.828735 881.999695,874.399597 880.869507,884.691223 
	C880.592285,887.215759 879.230225,890.093994 877.443542,891.892395 
	C871.753174,897.619934 865.627869,902.915405 859.336365,908.684143 
	C864.600220,915.560486 869.563293,922.043884 873.908508,927.720215 
	C880.895996,921.717896 886.903320,915.884583 893.592773,910.982056 
	C901.900391,904.893738 911.774780,901.789368 916.515930,902.669434 
	C909.692749,907.365967 906.636780,918.446594 910.063904,927.683594 
	C913.270386,936.326111 920.384216,945.598022 935.222778,944.069946 
	C942.693604,943.300598 952.636658,934.870483 953.817078,926.133484 
	C955.818665,911.318970 964.596741,900.860413 975.532288,892.388123 
	C989.460876,881.596863 1009.722900,882.016724 1024.146484,893.606140 
	C1032.984131,900.707214 1036.795410,914.333435 1032.000000,923.750610 
	C1032.000000,922.350830 1032.004272,921.362183 1031.999268,920.373535 
	C1031.936768,907.952393 1024.778198,902.062988 1012.405212,903.970093 
	C996.411560,906.435364 994.096680,922.042664 1001.993530,932.329041 
	C1015.616333,950.074097 1045.576416,951.447144 1058.949097,932.444885 
	C1066.119507,922.255981 1069.626587,911.186584 1064.378418,898.856873 
	C1060.830200,890.521240 1055.416138,883.657837 1048.438965,877.859985 
	C1039.924438,870.784546 1030.682495,865.603455 1019.359314,865.000122 
	C1015.716187,864.805969 1012.072571,864.622375 1009.921265,864.511169 
	C1011.566345,858.029602 1014.686890,851.274597 1014.660278,844.531982 
	C1014.621155,834.590454 1009.965881,825.468262 1003.937012,817.632324 
	C995.879028,807.159180 987.528625,796.837158 978.507263,787.195679 
	C963.413086,771.064148 947.732666,755.478943 932.215820,739.745972 
	C920.038391,727.398987 909.305054,713.883179 900.602173,698.934814 
	C893.564331,686.846252 888.648865,673.835571 889.036682,659.458923 
	C889.144897,655.447266 889.697510,651.447571 890.079468,647.060730 
	C889.248108,647.570496 888.616516,647.727051 888.476379,648.079224 
	C886.937317,651.945129 885.226990,655.766968 884.033020,659.741943 
	C877.468079,681.597473 873.058655,703.652405 874.796936,726.789795 
	C875.813843,740.325867 877.889709,753.489502 881.814026,766.413208 
	C886.719360,782.567200 894.131653,797.567505 904.513855,810.809509 
	C914.857544,824.002380 926.659668,835.887756 942.427734,842.721313 
	C951.121521,846.489075 960.104919,848.803467 969.569641,845.013672 
	C980.201233,840.756714 986.172241,828.953735 978.698425,818.375366 
	C975.692993,814.121460 971.542480,810.676575 967.641052,806.577576 
	C970.610413,807.382080 973.692566,807.964844 976.588501,809.046204 
	C987.823242,813.241272 997.310059,823.901245 996.916626,837.065613 
	C996.432739,853.252319 987.803650,864.826416 974.350891,872.845764 
	C962.275391,880.044128 948.887878,880.672852 935.553955,877.857422 
	C922.121948,875.021240 910.146484,868.814758 899.885925,859.442078 
	C889.615723,850.060425 882.656921,838.307251 876.274841,826.260864 
	C874.187317,822.320496 871.517029,818.076355 872.913086,812.730896 
	C874.173645,807.904846 874.807983,802.802307 874.888306,797.808411 
	C874.999329,790.900513 874.882812,783.895752 873.840088,777.089355 
	C872.844910,770.593872 870.537659,764.299438 868.807190,757.916626 
	C868.354675,758.050659 867.902161,758.184631 867.449646,758.318665 
	C866.456055,761.282349 865.462402,764.246094 864.090454,768.338440 
	C861.827087,758.752991 859.913879,750.650452 857.964600,741.711914 
M651.966675,1559.263306 
	C652.967163,1554.873291 654.574463,1550.516724 654.818298,1546.084961 
	C655.140991,1540.220093 655.817017,1533.760376 653.832581,1528.503174 
	C648.797729,1515.164062 640.763550,1514.229980 629.779541,1515.051880 
	C624.471191,1515.449097 618.137085,1521.405518 617.124146,1526.822754 
	C616.127075,1532.155029 618.142822,1540.306641 623.360168,1542.014893 
	C626.967224,1543.195923 630.727478,1543.908936 634.273254,1544.794678 
	C628.755493,1548.510986 626.162292,1548.231323 620.578918,1545.199341 
	C612.587280,1540.859619 606.747681,1526.144775 612.056274,1516.212036 
	C612.606445,1515.182617 614.129639,1514.396240 615.357239,1514.049927 
	C625.014587,1511.325317 633.509583,1506.633545 640.809570,1499.714111 
	C652.790283,1488.358032 660.495178,1474.106689 668.007507,1459.732910 
	C675.299683,1445.780518 682.138000,1431.580200 689.774414,1417.821167 
	C697.152954,1404.526611 707.075195,1393.594604 722.158875,1388.340210 
	C721.041321,1377.067627 722.725037,1366.044800 727.625305,1356.338013 
	C732.436096,1346.808105 739.582214,1338.457153 745.053955,1330.529907 
	C727.036133,1336.226685 707.535950,1342.392090 687.890625,1348.603394 
	C689.895996,1354.993774 691.881104,1361.319458 693.884155,1367.702271 
	C691.317932,1367.702271 688.735229,1367.029907 686.748291,1367.832520 
	C681.473206,1369.963013 675.707275,1371.849243 671.491638,1375.428589 
	C662.832397,1382.780762 656.612854,1391.755371 657.897888,1404.248169 
	C658.507080,1410.170654 658.972778,1416.406128 657.802246,1422.153076 
	C655.149536,1435.176514 645.975891,1445.541138 630.978210,1444.074585 
	C623.596252,1443.352783 616.991089,1439.171387 616.407349,1432.425415 
	C616.039490,1428.173828 617.504578,1423.499390 619.107971,1419.389404 
	C624.594238,1405.325684 634.539978,1397.012817 649.747253,1401.088989 
	C645.137756,1393.723877 641.223328,1386.935669 636.795898,1380.500488 
	C625.842773,1364.580566 604.610535,1358.010132 585.822754,1363.466675 
	C572.663513,1367.288696 556.151733,1386.722656 551.605896,1400.846069 
	C557.633667,1399.296265 563.288208,1399.591187 568.749756,1403.162598 
	C576.922913,1408.507324 580.595032,1416.650391 582.875122,1425.494873 
	C584.245605,1430.811157 584.785217,1436.623291 579.139160,1440.303711 
	C569.663208,1446.480713 556.164856,1445.897339 548.443604,1435.773071 
	C541.544067,1426.726318 539.250732,1416.412964 541.830078,1405.013306 
	C542.608398,1401.573242 542.515015,1397.534424 541.505676,1394.163818 
	C537.933838,1382.236816 522.770447,1364.872070 506.045258,1367.626465 
	C508.075439,1361.224976 510.083649,1354.892700 512.081604,1348.592773 
	C492.331726,1342.349243 472.883850,1336.201172 453.435974,1330.053101 
	C471.037262,1345.651001 478.902252,1365.184692 478.058105,1386.980103 
	C484.661469,1391.630493 490.878571,1395.339111 496.304993,1399.973511 
	C506.766174,1408.907471 512.568054,1421.270142 518.948730,1433.075928 
	C527.500244,1448.898560 535.076233,1465.274536 544.149170,1480.782227 
	C553.636353,1496.998047 566.440308,1509.861328 585.853027,1514.125244 
	C586.955017,1514.367188 588.142029,1515.951660 588.589905,1517.168945 
	C592.200623,1526.981812 588.139465,1538.449219 581.298584,1544.129517 
	C575.877258,1548.630981 570.214600,1548.513184 565.542114,1544.000000 
	C566.470581,1544.000000 567.305298,1543.949707 568.132385,1544.008179 
	C573.609070,1544.394775 578.343262,1542.876587 580.975769,1537.803345 
	C583.814453,1532.332642 583.979004,1526.968262 580.146057,1521.437134 
	C575.023254,1514.044678 567.577393,1514.364136 560.398987,1515.187134 
	C552.842651,1516.053589 545.382141,1525.149292 544.942200,1531.846436 
	C543.653870,1551.458130 549.784485,1569.150879 559.995850,1585.229126 
	C572.829224,1605.436035 586.849121,1624.889404 599.916321,1644.022705 
	C609.010132,1630.908081 618.358215,1617.081665 628.071045,1603.516602 
	C637.763550,1589.980103 646.504944,1575.993896 651.966675,1559.263306 
M762.961853,1238.663330 
	C765.952393,1248.028320 771.648315,1255.539429 779.049072,1262.458862 
	C782.217529,1259.872559 785.423096,1257.638550 788.166809,1254.935791 
	C793.685547,1249.499390 798.809387,1243.658447 804.393250,1238.293579 
	C806.675537,1236.100708 805.644165,1234.463379 804.337280,1232.907959 
	C796.379089,1223.437500 790.189758,1212.951904 785.815918,1201.390381 
	C779.750244,1185.356323 777.375610,1169.150635 783.807800,1152.616577 
	C785.678894,1147.806885 787.781799,1143.087402 789.778381,1138.326538 
	C789.554565,1137.992188 789.330688,1137.657837 789.106873,1137.323486 
	C782.333496,1141.117798 775.355469,1144.593262 768.834412,1148.780396 
	C758.848450,1155.192505 749.839294,1162.952148 742.988892,1172.671265 
	C735.017822,1183.980469 726.797852,1195.298096 720.467773,1207.534058 
	C712.440918,1223.049561 707.002075,1239.741943 703.461548,1256.978394 
	C700.151611,1273.092041 698.130432,1289.275513 699.251587,1306.453735 
	C708.709778,1302.374634 717.885254,1298.417480 727.367859,1294.327881 
	C726.886902,1291.370605 726.091064,1288.652588 726.057800,1285.925293 
	C725.811401,1265.762451 725.031982,1245.534180 732.010986,1226.078613 
	C736.464478,1213.663452 741.880615,1201.876587 752.776001,1193.054321 
	C754.383484,1208.645264 756.288940,1223.803833 762.961853,1238.663330 
M453.540588,1199.025269 
	C454.154663,1199.968750 454.706085,1200.960693 455.392120,1201.848511 
	C468.158997,1218.373535 472.607269,1237.752686 473.861053,1257.955811 
	C474.616486,1270.128418 474.000000,1282.386230 474.000000,1294.925903 
	C482.329163,1298.513184 491.394348,1302.417480 501.797333,1306.898071 
	C500.795685,1293.072876 500.759888,1280.322021 498.756958,1267.887939 
	C495.949402,1250.459106 491.108826,1233.411621 483.945312,1217.186279 
	C475.818451,1198.778809 465.907623,1181.350708 451.965118,1166.701782 
	C445.339172,1159.740112 437.842377,1153.441528 430.032837,1147.826294 
	C424.132660,1143.583862 417.109955,1140.902588 410.586853,1137.526489 
	C411.741760,1142.208740 413.469147,1145.796997 415.030609,1149.456055 
	C420.290009,1161.780884 421.065582,1174.349976 418.258606,1187.519531 
	C414.639618,1204.498413 406.642029,1219.094971 395.996704,1232.466187 
	C394.268280,1234.637329 393.500122,1236.250732 395.908142,1238.610474 
	C401.323761,1243.917358 406.346283,1249.625610 411.770081,1254.923584 
	C414.598663,1257.686646 417.938477,1259.926270 421.202698,1262.526123 
	C440.410461,1243.224121 444.505707,1218.805298 447.244629,1193.858643 
	C447.776886,1193.594727 448.309113,1193.330811 448.841370,1193.066895 
	C450.230591,1194.883667 451.619781,1196.700439 453.540588,1199.025269 
M801.360596,1041.085327 
	C797.032227,1029.369507 792.703918,1017.653564 788.141663,1005.304565 
	C768.655151,1025.871216 745.102722,1031.735596 717.944031,1029.788086 
	C741.371826,1067.567261 778.220398,1074.687988 817.305542,1079.812622 
	C813.563049,1070.483765 810.417358,1062.262085 806.890747,1054.207275 
	C806.266235,1052.781128 804.195923,1051.636963 802.549866,1051.072510 
	C796.837463,1049.113770 791.017944,1047.467773 785.114624,1045.664795 
	C790.560913,1044.289062 795.699219,1042.991211 801.360596,1041.085327 
M401.963928,1031.390991 
	C400.681183,1034.537231 399.398407,1037.683472 397.890472,1041.382080 
	C403.798706,1042.865112 409.177124,1044.215210 414.918518,1045.656494 
	C408.911896,1047.482056 403.084381,1049.114624 397.370239,1051.077393 
	C395.737793,1051.638184 393.727631,1052.846436 393.096741,1054.286255 
	C389.567841,1062.339844 386.408661,1070.555542 382.733734,1079.682983 
	C389.624817,1078.715942 395.729706,1077.853882 401.836182,1077.003174 
	C421.821594,1074.218872 440.471954,1067.658203 457.492188,1056.805786 
	C467.756287,1050.261230 475.382690,1041.225586 481.382965,1029.738403 
	C454.512787,1031.842773 431.082855,1025.589844 412.005981,1005.570007 
	C408.531647,1014.293579 405.284882,1022.445801 401.963928,1031.390991 
M227.081070,1219.541626 
	C227.447861,1219.605469 227.814651,1219.669312 228.181473,1219.733154 
	C228.120255,1219.356079 228.126022,1218.943726 227.956909,1218.623535 
	C227.906357,1218.527832 227.366837,1218.690308 227.081070,1219.541626 
z"/>
<path fill="#915EFF" opacity="1.000000" stroke="none" 
	d="
M752.899048,1313.967896 
	C710.679565,1328.884644 647.765137,1342.865601 628.459961,1342.277954 
	C636.470764,1340.189209 644.495605,1338.152954 652.489624,1336.001953 
	C675.811096,1329.727173 698.872131,1322.577271 720.611328,1311.956055 
	C737.359863,1303.773193 754.396973,1295.811523 769.997559,1285.727661 
	C799.422180,1266.708252 824.324829,1242.913818 838.893250,1210.154907 
	C844.243347,1198.124634 847.598694,1185.505249 849.132385,1172.268433 
	C852.563477,1142.654419 846.026062,1114.858032 835.266357,1087.656616 
	C824.494019,1060.423096 813.751953,1033.177612 803.039673,1005.920471 
	C791.559326,976.708984 780.093262,947.491699 768.687744,918.250977 
	C758.400391,891.876831 748.264282,865.443726 737.947998,839.081055 
	C729.043579,816.326294 719.918823,793.657898 711.002319,770.907898 
	C701.262390,746.056885 691.695251,721.138123 681.967773,696.282288 
	C673.711853,675.186646 665.282837,654.158813 657.024902,633.064026 
	C647.294617,608.208008 637.708618,583.295532 627.980469,558.438538 
	C619.724854,537.344055 611.350403,516.296082 603.045105,495.221039 
	C602.112549,492.854645 601.287292,490.445984 600.053833,487.078278 
	C596.369324,496.531586 593.029663,505.154114 589.650085,513.760986 
	C581.193665,535.297241 572.670776,556.807556 564.264282,578.363220 
	C554.448608,603.532104 544.795410,628.764465 534.945557,653.919800 
	C526.744751,674.863586 518.281433,695.704529 510.079163,716.647766 
	C499.637054,743.309998 489.391571,770.049316 478.965454,796.717896 
	C470.776184,817.664856 462.371521,838.527649 454.188843,859.477112 
	C443.712799,886.298340 433.422394,913.191956 422.940582,940.010925 
	C414.811829,960.809265 406.460205,981.520386 398.301697,1002.307251 
	C388.135864,1028.208618 377.842743,1054.063721 368.045471,1080.104736 
	C362.756256,1094.163330 357.546326,1108.352539 353.828369,1122.874146 
	C349.788239,1138.654175 349.061066,1154.860229 350.773193,1171.296875 
	C352.665619,1189.464722 358.213501,1206.262939 367.144440,1221.894775 
	C372.202667,1230.748169 378.027710,1239.393188 384.785400,1246.996216 
	C397.603394,1261.417847 411.981171,1274.257568 428.279480,1284.817139 
	C451.814941,1300.065674 476.713409,1312.710815 503.184570,1321.782471 
	C524.429443,1329.063232 546.248657,1334.666870 567.800903,1341.055664 
	C568.793701,1341.349976 569.667358,1342.046143 570.381042,1343.323975 
	C562.145508,1342.174316 553.822510,1341.451050 545.692871,1339.784790 
	C529.498474,1336.465576 513.323730,1332.971069 497.297516,1328.927979 
	C470.444122,1322.153320 443.991028,1313.934326 418.526642,1303.012573 
	C397.212219,1293.870850 376.024994,1284.327759 355.327362,1273.880737 
	C332.102631,1262.158203 310.005341,1248.307007 289.716766,1231.985718 
	C273.459503,1218.907471 258.533508,1204.176147 242.298752,1191.067505 
	C227.677628,1179.261963 211.316513,1170.696289 192.169495,1167.819092 
	C178.040787,1165.695923 165.002640,1168.890259 151.064148,1173.384644 
	C181.749603,1100.578613 178.465775,1029.080200 145.777023,957.413391 
	C148.559265,958.885132 150.533524,959.844360 152.426224,960.943909 
	C170.384964,971.376953 189.383667,979.113525 210.053192,981.895081 
	C219.816193,983.208984 229.770248,984.168945 239.581879,983.800720 
	C253.590652,983.274963 267.128113,979.838562 280.207123,974.450684 
	C301.175751,965.812500 318.549072,952.151611 332.931824,935.151489 
	C343.598846,922.543335 353.042145,908.699768 361.575104,894.530029 
	C376.680176,869.446655 386.299805,841.770569 397.154236,814.694336 
	C407.936066,787.799133 419.300354,761.138062 430.241089,734.305786 
	C440.626312,708.835693 450.710297,683.242798 461.081085,657.766724 
	C470.907227,633.628479 481.005249,609.600952 490.850403,585.470337 
	C499.408722,564.493835 507.701172,543.408875 516.257568,522.431580 
	C524.694153,501.748260 533.338257,481.149719 541.846924,460.495728 
	C548.563599,444.191803 555.241516,427.871704 561.831482,411.516418 
	C562.295593,410.364655 562.383667,408.585083 561.811462,407.566528 
	C556.722168,398.506470 550.801270,389.857910 546.355408,380.503479 
	C536.903137,360.615051 527.667786,340.528259 524.072754,318.539734 
	C522.570312,309.350342 521.618774,300.030548 521.092102,290.731812 
	C520.375977,278.087280 524.311523,266.203766 529.141296,254.813126 
	C538.872620,231.862396 552.866699,211.498322 568.969604,192.586075 
	C578.797546,181.043472 588.970886,169.794861 599.581665,157.741028 
	C605.863953,164.151718 611.708740,169.569183 616.907166,175.548645 
	C624.742676,184.561478 632.445984,193.726059 639.635742,203.255981 
	C654.433899,222.870605 667.981140,243.213745 675.122009,267.160156 
	C678.791077,279.464081 679.551086,291.709351 678.174622,304.509155 
	C674.617004,337.591156 661.070496,366.880249 645.212341,395.406036 
	C643.006287,399.374237 640.521973,403.193726 638.456055,407.230255 
	C637.842957,408.428162 637.715088,410.337982 638.217651,411.575256 
	C650.152283,440.958893 662.265564,470.269958 674.214783,499.647797 
	C684.578186,525.127075 694.701172,550.704224 705.076294,576.178650 
	C714.235107,598.666260 723.671631,621.040771 732.844482,643.522766 
	C741.403015,664.499023 749.711060,685.577454 758.248901,706.562256 
	C766.606018,727.103088 775.179016,747.556030 783.539001,768.095642 
	C793.482422,792.525818 803.136536,817.074707 813.216492,841.447876 
	C823.768982,866.963806 834.968445,892.167664 850.961182,914.922363 
	C864.977478,934.864990 881.334045,952.504272 902.112183,965.433289 
	C917.840088,975.219849 935.055481,981.114685 953.694580,983.097595 
	C988.104248,986.758301 1019.184448,977.399597 1048.460083,960.198242 
	C1049.161499,959.786072 1049.888794,959.410522 1050.630005,959.075378 
	C1051.504272,958.680054 1052.406982,958.347595 1053.985718,957.709900 
	C1021.701050,1028.906494 1018.120605,1100.318848 1048.838989,1173.046143 
	C1043.556152,1171.648682 1038.544434,1170.262695 1033.501709,1169.000366 
	C1016.621887,1164.774780 1000.577209,1167.585205 984.904602,1174.510254 
	C970.325195,1180.952271 958.285828,1190.570190 946.661499,1201.422729 
	C932.449646,1214.691040 917.222107,1227.005249 901.578918,1238.576538 
	C874.995544,1258.240112 846.333252,1274.662354 816.175781,1288.190063 
	C795.524170,1297.453735 774.281616,1305.400146 752.899048,1313.967896 
M617.533813,233.044022 
	C611.891541,223.524445 606.249207,214.004852 600.113770,203.653198 
	C585.735413,225.929855 573.453918,247.633255 566.250793,271.767212 
	C563.888794,279.681152 563.295166,288.009064 566.035156,296.251251 
	C572.265137,314.992035 581.768799,332.129486 591.648438,349.082062 
	C594.113647,353.312164 597.035339,357.276215 600.130981,361.940704 
	C612.294983,342.828613 623.265137,324.272034 631.006714,304.005341 
	C634.490540,294.884796 636.991699,285.843262 634.488708,275.626465 
	C630.859436,260.812408 624.357727,247.303299 617.533813,233.044022 
z"/>
<path fill="#915EFF" opacity="1.000000" stroke="none" 
	d="
M661.072876,938.081665 
	C665.488281,937.721130 669.897522,937.216187 674.320251,937.025818 
	C690.608093,936.324341 704.712585,942.672058 717.246582,952.070618 
	C726.320068,958.874390 734.171875,967.309631 742.534302,975.054321 
	C743.196899,975.667908 743.591919,976.570374 744.374512,977.727905 
	C738.554749,976.382751 733.298279,975.080017 728.003052,973.960815 
	C713.343384,970.862061 701.020264,976.021851 690.217651,985.373230 
	C677.837402,996.090210 671.552368,1010.635132 665.953003,1025.557007 
	C663.965820,1030.852783 661.490723,1035.965332 659.093201,1041.496582 
	C673.242371,1051.860962 689.287903,1061.434692 686.573425,1082.159790 
	C673.798462,1086.325317 661.595947,1089.265747 650.287720,1094.239502 
	C634.136108,1101.343628 621.151611,1112.551758 619.236084,1131.400024 
	C617.474609,1148.731445 629.692749,1169.238403 649.859131,1172.902466 
	C657.290466,1174.252686 663.977539,1171.750366 669.169495,1167.011841 
	C663.791626,1166.690063 658.015930,1166.870239 652.443542,1165.891846 
	C643.419189,1164.307251 634.976257,1155.266113 634.006226,1147.115601 
	C632.707458,1136.203735 637.514343,1126.605835 646.775696,1122.050781 
	C664.896179,1113.138794 681.918518,1115.602051 697.322021,1128.067505 
	C702.937744,1132.612183 706.267944,1139.221680 706.984253,1146.698242 
	C708.944153,1167.154541 704.113708,1186.434814 695.925598,1204.882202 
	C686.282227,1226.608154 672.451477,1245.725952 657.471008,1264.063477 
	C641.848450,1283.186890 626.284180,1302.360352 610.933838,1321.701904 
	C606.931335,1326.744995 603.820129,1332.495361 600.152893,1338.146973 
	C595.118225,1330.885010 590.422974,1323.556274 585.163147,1316.657959 
	C577.537781,1306.657593 569.667908,1296.831787 561.611328,1287.174316 
	C544.259399,1266.374756 526.203430,1246.043091 513.188293,1222.114258 
	C506.946869,1210.639038 501.549316,1198.531860 497.365051,1186.170776 
	C494.489166,1177.674927 494.735352,1168.171387 492.881104,1159.265015 
	C491.375244,1152.031860 492.506012,1145.210327 495.183807,1138.794189 
	C500.083466,1127.054565 510.016144,1120.942261 521.877197,1118.163696 
	C532.645569,1115.640991 543.227417,1116.584717 553.258850,1121.985229 
	C562.080872,1126.734619 567.225281,1136.009155 565.986206,1146.114624 
	C564.739685,1156.281616 556.493347,1164.329102 547.549377,1165.898926 
	C542.028015,1166.867920 536.315552,1166.747314 531.368103,1167.071411 
	C536.274841,1173.024536 547.193054,1175.632935 558.385376,1170.166626 
	C570.402161,1164.297974 576.904236,1154.344727 580.041443,1141.640991 
	C584.379700,1124.073486 571.360535,1106.068237 556.544678,1097.732910 
	C544.188416,1090.781250 530.959473,1086.818481 517.271484,1084.176147 
	C513.670410,1083.480957 513.061646,1081.937866 512.992737,1079.056274 
	C512.703552,1066.961060 519.183289,1058.382690 527.807983,1051.089111 
	C531.885315,1047.640869 536.430908,1044.746460 541.780579,1040.863403 
	C533.960999,1025.531128 527.046387,1009.404419 517.866455,994.691162 
	C508.553284,979.764587 493.784729,972.173401 475.816650,973.185608 
	C469.206787,973.557983 462.715668,976.038757 456.164551,977.561768 
	C456.158691,977.243286 456.017914,976.790649 456.178650,976.616638 
	C471.639038,959.879211 487.892517,944.260498 510.980194,938.500122 
	C520.527405,936.117981 530.101929,936.479980 540.351135,938.631958 
	C536.181824,932.664673 533.189697,926.926575 532.846436,919.785706 
	C532.323792,908.913757 535.801147,899.458313 541.732788,890.884766 
	C559.663208,864.968567 573.273132,836.707336 587.057922,808.532166 
	C591.369385,799.719666 595.443420,790.790894 599.980713,781.163086 
	C603.795715,789.044678 607.177917,796.169495 610.678284,803.235840 
	C618.538696,819.104126 626.025635,835.178223 634.476257,850.727417 
	C642.683716,865.829163 651.623718,880.556519 660.770691,895.116150 
	C667.806030,906.314636 670.532166,925.953247 660.287842,937.290161 
	C659.689026,938.078674 659.537048,938.415405 659.385071,938.752197 
	C659.947693,938.528687 660.510254,938.305176 661.072876,938.081665 
M593.466248,1183.020874 
	C592.396667,1183.759033 591.356934,1184.545532 590.252808,1185.227905 
	C579.474854,1191.887817 568.764771,1198.655640 555.709290,1200.164062 
	C554.676575,1200.283325 553.069885,1202.643799 553.138977,1203.884155 
	C553.502930,1210.412842 553.918945,1216.986694 555.049683,1223.416138 
	C559.642029,1249.526489 574.390137,1268.554810 596.902344,1281.837524 
	C598.368591,1282.702637 601.269775,1282.290161 602.965637,1281.421753 
	C613.003967,1276.281372 621.391174,1269.170410 628.390808,1260.214600 
	C641.504883,1243.435425 647.326965,1224.401489 646.859802,1203.320435 
	C646.834717,1202.192383 645.010132,1200.554688 643.698547,1200.108398 
	C639.892761,1198.813110 635.585938,1198.664429 632.077332,1196.881714 
	C620.993591,1191.249878 610.184570,1185.077515 598.782593,1178.848389 
	C597.876282,1179.541260 595.934570,1181.025635 593.466248,1183.020874 
M578.477905,1007.979309 
	C581.011963,1019.227539 583.546021,1030.475708 586.176392,1042.151489 
	C567.521545,1036.426025 550.217712,1042.508179 547.675537,1056.175659 
	C549.541260,1054.885376 551.148743,1053.505127 552.978394,1052.550903 
	C568.174988,1044.624756 582.190552,1047.196411 595.106323,1057.693481 
	C598.685059,1060.602051 601.740784,1060.659058 605.040405,1057.495239 
	C611.863770,1050.952393 620.281799,1048.391968 629.492065,1048.015381 
	C637.819336,1047.674683 645.090698,1050.724243 652.336548,1055.019653 
	C650.328491,1051.279907 648.191223,1047.531860 645.029663,1045.134644 
	C635.645935,1038.019409 624.968384,1039.254517 613.899719,1041.981567 
	C614.503601,1038.976196 615.015442,1036.473877 615.508545,1033.967773 
	C618.673340,1017.883118 623.187744,1001.920044 624.654724,985.681763 
	C626.501892,965.235474 625.528625,944.593567 616.959351,925.232422 
	C612.800903,915.837097 608.277771,906.640198 600.009644,899.761963 
	C599.303345,900.356934 598.767151,900.726746 598.329041,901.189453 
	C582.873413,917.512451 576.833191,937.765320 575.156677,959.409485 
	C573.919800,975.377808 575.133362,991.392700 578.477905,1007.979309 
z"/>
<path fill="#FFFFFF" opacity="1.000000" stroke="none" 
	d="
M851.000000,1390.977539 
	C833.934265,1397.658447 823.064880,1409.508667 821.271790,1427.536987 
	C820.205811,1438.254639 824.396790,1448.206543 833.590637,1454.782593 
	C843.084229,1461.573364 852.906860,1459.815430 862.875366,1454.509155 
	C858.368103,1453.994629 854.169617,1453.925049 850.176331,1452.984375 
	C837.039978,1449.890381 836.869507,1435.901245 843.731567,1427.810669 
	C848.809509,1421.823730 855.834534,1419.231689 863.254822,1418.062744 
	C891.900879,1413.549072 917.556396,1421.881104 940.996155,1437.640137 
	C966.505737,1454.790771 983.636047,1478.628418 993.993408,1507.444214 
	C995.322449,1511.141846 996.585327,1514.863159 997.017395,1519.041382 
	C994.998718,1515.848999 993.022278,1512.629028 990.953552,1509.469482 
	C984.218872,1499.184204 973.850281,1493.576904 963.031494,1489.160400 
	C947.423889,1482.788940 930.889038,1479.785156 914.149902,1477.994873 
	C898.732544,1476.345703 883.250061,1475.130127 867.921875,1472.870850 
	C851.716492,1470.482300 835.030273,1469.237915 820.451782,1460.693604 
	C812.581360,1456.080688 806.767883,1449.565796 806.911438,1438.952148 
	C799.955078,1445.488403 792.009827,1449.569458 782.899170,1450.535156 
	C769.438660,1451.961426 755.796570,1451.295898 746.257141,1440.412231 
	C733.553467,1425.918457 736.355774,1401.994629 757.339478,1394.009033 
	C763.752625,1391.568481 770.270813,1391.060791 776.927490,1392.945923 
	C782.211609,1394.442261 785.990479,1397.671265 786.916077,1403.128784 
	C788.095459,1410.083252 786.289795,1416.375488 779.564087,1419.656738 
	C774.568726,1422.093750 769.146912,1422.404907 764.511353,1418.112183 
	C764.351501,1417.963989 763.890442,1418.140991 763.224976,1418.193848 
	C765.868286,1424.864990 771.978699,1427.033447 777.650024,1427.784668 
	C798.001831,1430.480225 812.862915,1415.624878 813.967957,1396.311035 
	C814.167236,1392.827515 814.244995,1389.287720 813.865112,1385.830322 
	C812.977844,1377.754517 808.801697,1372.554932 801.842773,1367.587646 
	C789.161072,1358.535156 783.803528,1342.564453 786.608093,1326.802734 
	C786.835327,1325.525757 786.702942,1324.164307 787.056946,1322.933960 
	C788.518860,1317.853882 790.720337,1314.162354 796.378113,1311.667969 
	C816.047302,1302.995728 835.272766,1293.317261 854.673645,1284.035522 
	C855.967651,1283.416504 857.317444,1282.914185 859.292419,1282.083984 
	C858.086243,1296.528198 854.603638,1309.505737 843.864197,1319.436890 
	C842.818909,1320.403564 839.909851,1320.393433 838.428833,1319.675537 
	C830.960632,1316.055420 823.982300,1316.540283 816.797180,1320.593018 
	C805.965515,1326.703003 801.766602,1344.844727 811.515564,1355.240479 
	C820.093567,1364.387695 833.241882,1366.026367 844.529602,1361.147705 
	C860.219910,1354.366211 871.622009,1343.485596 877.930603,1327.667236 
	C880.286987,1321.758789 881.188965,1315.286011 883.029602,1309.153198 
	C887.994019,1292.613037 896.422363,1277.901978 907.100891,1264.421753 
	C907.484680,1263.937256 908.059204,1263.604004 908.428772,1263.296631 
	C907.992981,1268.735962 907.560364,1274.134644 907.127808,1279.533325 
	C923.460754,1252.631226 947.145325,1234.526855 973.070190,1218.495239 
	C971.041199,1221.391235 968.750793,1224.143677 967.057983,1227.224609 
	C965.419067,1230.207153 964.394836,1233.527344 962.865540,1237.275391 
	C968.438599,1233.548828 973.028137,1229.550903 978.335449,1227.119995 
	C990.245544,1221.664551 1002.357361,1216.560303 1014.671082,1212.096558 
	C1031.998413,1205.815430 1049.759766,1200.708374 1066.135498,1191.993652 
	C1091.422241,1178.536865 1108.864990,1158.094971 1118.680786,1131.424927 
	C1123.833374,1117.425171 1123.911499,1103.017944 1115.909424,1089.709351 
	C1107.622192,1075.926636 1095.532959,1067.009644 1079.121582,1067.237427 
	C1063.774170,1067.450562 1054.623535,1085.452393 1059.152710,1096.372681 
	C1059.249756,1096.606812 1059.604248,1096.734253 1059.839355,1096.910522 
	C1071.194458,1088.828857 1081.933105,1089.494995 1091.041992,1097.243286 
	C1097.773315,1102.969116 1096.999390,1114.901611 1091.957764,1121.625244 
	C1081.049683,1136.172363 1062.619141,1129.357666 1054.800415,1119.682617 
	C1043.974731,1106.286499 1047.393188,1087.564087 1055.685425,1073.821167 
	C1064.229736,1059.660400 1077.260620,1053.416016 1093.290771,1054.167603 
	C1105.052002,1054.718994 1115.639282,1059.203369 1125.201050,1066.529785 
	C1140.350464,1078.137695 1148.275024,1093.920898 1151.765869,1111.935425 
	C1154.007568,1123.504150 1153.305664,1135.307739 1151.221313,1147.158569 
	C1148.037598,1165.260864 1142.279663,1182.371826 1133.729004,1198.462524 
	C1126.431152,1212.195801 1117.441650,1224.827881 1107.115479,1236.625610 
	C1092.977661,1252.777832 1076.503662,1265.961304 1058.747681,1277.713867 
	C1041.660034,1289.023804 1023.303833,1297.804321 1003.952209,1304.511719 
	C1002.478699,1305.022339 1000.923767,1305.298096 998.939087,1306.989136 
	C1002.543396,1308.953491 1006.147644,1310.917847 1010.906860,1313.511597 
	C989.097412,1322.683472 966.983398,1322.995850 944.238464,1320.980103 
	C946.347839,1327.107910 951.908875,1328.807373 956.820618,1331.441040 
	C927.411560,1333.683838 901.073059,1344.175049 875.978516,1358.744263 
	C880.463806,1366.869385 888.143921,1371.463745 895.817871,1375.941895 
	C906.366089,1382.097656 917.149719,1387.849976 927.693115,1394.013672 
	C936.544495,1399.188232 942.463135,1407.039307 946.668152,1416.253662 
	C946.981323,1416.939819 946.903870,1417.804321 946.854675,1417.435059 
	C935.872681,1410.636597 924.778442,1402.842163 912.854919,1396.643188 
	C900.523499,1390.232300 887.185974,1385.492798 873.001160,1386.223999 
	C865.739563,1386.598145 858.598206,1389.304321 851.000000,1390.977539 
M925.797485,1306.001831 
	C933.287231,1301.659912 940.486755,1296.686035 948.319214,1293.090698 
	C975.415894,1280.651733 1002.881470,1269.012817 1029.923584,1256.459717 
	C1056.199219,1244.262329 1081.395752,1230.240234 1100.161987,1207.253418 
	C1103.908081,1202.664795 1107.069092,1197.598633 1110.499756,1192.752563 
	C1110.103149,1192.445923 1109.706421,1192.139282 1109.309692,1191.832520 
	C1108.675049,1192.264893 1107.942139,1192.602417 1107.420532,1193.143677 
	C1099.926514,1200.920776 1093.118042,1209.519287 1084.852417,1216.358276 
	C1067.497070,1230.718018 1047.295776,1240.587646 1026.785889,1249.538452 
	C1001.325073,1260.649536 975.581848,1271.169678 951.861267,1285.772705 
	C942.269287,1291.677856 933.433228,1298.810913 923.672485,1305.858154 
	C923.062561,1306.154297 922.452698,1306.450439 921.842834,1306.746582 
	C921.971008,1307.017334 922.099182,1307.287964 922.227356,1307.558716 
	C923.176514,1307.065796 924.125671,1306.572876 925.797485,1306.001831 
M921.541504,1308.919067 
	C921.605347,1308.552246 921.669189,1308.185547 921.733032,1307.818726 
	C921.356018,1307.880005 920.943604,1307.874146 920.623535,1308.043091 
	C920.527893,1308.093872 920.690369,1308.633301 921.541504,1308.919067 
z"/>
<path fill="#FFFFFF" opacity="1.000000" stroke="none" 
	d="
M341.000000,1286.187378 
	C341.000000,1284.658813 341.000000,1283.554932 341.000000,1281.823486 
	C349.572693,1286.380981 357.504364,1291.000977 365.775116,1294.901855 
	C378.677551,1300.987305 391.651733,1306.988770 404.922760,1312.190918 
	C410.230652,1314.271362 411.704010,1318.151611 412.677979,1322.458618 
	C416.466125,1339.210571 412.668121,1354.002563 400.241119,1366.211060 
	C398.505890,1367.915771 396.671906,1369.960571 394.496216,1370.686157 
	C389.713989,1372.280518 388.311829,1375.892944 387.364197,1380.142212 
	C384.533539,1392.835449 384.961456,1405.093018 393.040375,1415.945923 
	C401.887665,1427.830933 419.256287,1432.442627 432.918976,1423.517334 
	C434.286163,1422.624023 435.226074,1421.076660 436.772980,1419.386108 
	C432.669861,1420.028198 429.549347,1420.434570 426.462067,1421.017090 
	C420.551727,1422.132202 413.964020,1415.294189 413.056488,1410.542847 
	C411.514771,1402.471069 415.235504,1394.934082 422.162567,1393.099487 
	C434.411713,1389.855347 445.547943,1392.460938 454.251129,1401.887207 
	C462.810974,1411.158325 462.629303,1422.020996 458.322845,1433.201416 
	C454.153076,1444.026855 445.149017,1448.156860 434.673523,1449.963623 
	C419.811462,1452.527100 408.874359,1451.249756 393.391449,1439.944824 
	C391.224426,1457.175781 378.400116,1463.514038 364.163757,1466.750366 
	C349.028809,1470.190796 333.470856,1471.836792 318.055664,1473.962158 
	C294.937103,1477.149780 271.485443,1478.338745 248.958786,1485.051147 
	C233.116333,1489.771606 218.178864,1496.221069 208.163574,1510.397339 
	C206.523239,1512.719116 205.265518,1515.311279 202.792374,1517.440186 
	C203.554626,1514.514771 204.053131,1511.489136 205.120636,1508.679688 
	C214.211868,1484.753662 227.386887,1463.460083 246.938324,1446.675049 
	C262.940369,1432.937256 281.262817,1423.387817 302.046478,1419.021973 
	C314.989807,1416.303101 328.005798,1415.616333 340.937531,1419.038940 
	C348.107727,1420.936401 354.815521,1423.971436 358.418213,1430.973511 
	C364.357727,1442.517700 357.869080,1453.856934 344.570526,1453.996582 
	C342.238861,1454.021118 339.906769,1454.000000 337.462860,1454.000000 
	C351.556274,1464.320068 369.575531,1458.334839 375.977234,1442.555054 
	C385.414093,1419.293579 368.802765,1398.150391 349.758514,1391.196411 
	C342.135895,1388.413086 333.821869,1386.690063 325.725586,1386.243774 
	C315.171844,1385.662109 305.033417,1389.056274 295.223267,1392.975708 
	C279.788055,1399.142456 265.871613,1407.775146 252.529877,1419.641846 
	C255.256790,1410.193237 259.693939,1402.864502 266.731049,1398.232544 
	C278.921387,1390.209106 291.906677,1383.403320 304.421539,1375.859375 
	C311.892181,1371.356201 319.380554,1366.738647 324.067108,1358.779419 
	C298.955048,1344.323364 272.684906,1333.598877 242.544434,1331.821777 
	C247.641769,1328.485596 253.728973,1327.320435 255.704773,1321.157471 
	C233.178207,1322.901001 211.077332,1322.548828 188.902054,1313.629272 
	C193.649536,1311.064087 197.397263,1309.039062 201.533493,1306.804199 
	C192.180893,1302.968140 183.463303,1300.097168 175.412827,1295.935669 
	C161.025909,1288.498535 146.360641,1281.269409 133.085297,1272.107788 
	C120.491272,1263.416504 108.728729,1253.141113 98.027855,1242.170288 
	C79.828186,1223.511230 65.756920,1201.948975 56.889961,1177.120972 
	C50.544613,1159.353760 45.731613,1141.328369 47.118053,1122.390015 
	C49.134312,1094.848755 60.357906,1072.371460 86.086662,1059.575684 
	C99.990181,1052.661011 114.583313,1051.400269 128.932526,1059.010864 
	C141.422974,1065.635376 147.468628,1077.008301 150.951370,1090.000732 
	C153.948395,1101.180908 151.996750,1111.790039 144.586853,1120.634155 
	C138.538696,1127.852905 130.141129,1131.295654 120.619247,1129.891846 
	C111.879242,1128.603394 107.131905,1121.994629 104.291794,1114.477539 
	C100.834389,1105.327026 108.188713,1094.459717 118.484985,1091.966675 
	C126.588219,1090.004639 133.873993,1090.869751 139.911697,1097.141602 
	C143.302261,1091.935791 142.348251,1083.219604 138.073898,1077.592529 
	C126.516258,1062.376709 113.820923,1065.344238 101.243973,1072.618286 
	C85.153458,1081.924438 77.051056,1096.742065 78.045654,1115.721924 
	C78.730721,1128.794922 84.256310,1140.362061 90.937958,1151.211304 
	C95.506790,1158.629761 100.740906,1165.883301 106.841568,1172.061035 
	C118.305992,1183.670288 131.943848,1192.376587 147.351227,1198.049927 
	C167.343704,1205.411499 187.395035,1212.613892 207.369339,1220.024170 
	C217.705368,1223.858643 227.259552,1229.128784 235.404892,1236.733887 
	C235.870682,1236.475586 236.336472,1236.217407 236.802277,1235.959229 
	C234.270737,1230.723633 231.739212,1225.488037 228.775345,1219.358276 
	C241.638260,1226.702393 252.929245,1235.305786 263.404633,1244.978149 
	C273.990143,1254.752319 283.851715,1265.195679 290.869293,1278.834351 
	C295.446381,1273.206665 291.003815,1268.225952 291.092651,1263.367310 
	C291.502991,1263.143311 291.913330,1262.919312 292.323639,1262.695190 
	C296.886292,1269.838501 301.592133,1276.895142 305.979950,1284.144287 
	C313.622101,1296.770020 316.931458,1310.961670 321.261902,1324.910522 
	C327.734161,1345.758667 343.122223,1358.420898 364.098755,1363.879395 
	C373.311615,1366.276733 386.153534,1360.213989 390.980560,1352.192383 
	C395.919739,1343.984497 394.950867,1333.458130 388.474640,1324.967285 
	C383.657776,1318.651855 372.061005,1315.491943 364.135437,1318.335083 
	C356.637878,1321.024780 354.503326,1320.669067 350.416504,1313.723267 
	C345.510864,1305.385498 341.692291,1296.496216 341.000000,1286.187378 
M244.320663,1283.030029 
	C224.383286,1273.408813 204.404465,1263.872314 184.520615,1254.141846 
	C166.246552,1245.198853 147.677353,1236.750000 129.991486,1226.751099 
	C117.255981,1219.551147 105.792557,1210.139648 96.712662,1198.274780 
	C94.659874,1195.592285 92.177635,1193.238525 89.893066,1190.733521 
	C89.388428,1191.159058 88.883797,1191.584717 88.379166,1192.010376 
	C94.185844,1199.439331 99.494476,1207.333374 105.904907,1214.198608 
	C118.531914,1227.721680 133.654709,1238.295898 150.151093,1246.408203 
	C172.013000,1257.158936 194.279480,1267.127808 216.646408,1276.798218 
	C236.122025,1285.218750 255.468399,1293.760742 273.172638,1305.604492 
	C273.944397,1306.120728 274.923859,1306.326538 275.806519,1306.677002 
	C274.934479,1304.563477 273.627563,1303.117798 272.067963,1302.036377 
	C263.063873,1295.791992 254.000092,1289.633545 244.320663,1283.030029 
z"/>
<path fill="#FFFFFF" opacity="1.000000" stroke="none" 
	d="
M386.765564,791.641113 
	C381.474731,797.081360 376.389984,802.210083 371.810455,806.829224 
	C374.271698,806.382751 378.019745,805.702759 381.972717,804.985657 
	C376.087067,817.682251 353.241699,830.942749 335.095184,832.213745 
	C330.752563,843.499878 326.439880,855.014465 321.885651,866.432617 
	C319.018036,873.622131 318.376770,881.095947 319.209595,888.582153 
	C319.474609,890.964355 321.941071,893.335693 323.859039,895.253113 
	C328.408020,899.800842 333.228943,904.076721 337.945679,908.456360 
	C339.731567,910.114563 339.802307,911.531128 338.169342,913.618835 
	C333.683289,919.354431 329.512207,925.336365 325.029816,931.476501 
	C314.785980,915.783325 300.827087,907.375305 282.021820,903.572754 
	C292.816498,912.851013 293.239838,922.687317 288.079987,933.568359 
	C284.040833,942.086121 276.899750,946.834839 268.114014,946.699829 
	C258.463165,946.551514 250.007141,941.802063 247.198013,930.416931 
	C244.992142,921.476685 241.688614,913.467346 236.069748,906.188049 
	C225.647583,892.686096 212.422729,885.477844 195.085449,887.020630 
	C183.138016,888.083740 169.487091,898.915466 166.346542,910.476929 
	C165.293213,914.354553 166.180023,918.759155 166.180023,922.922913 
	C166.638153,922.961426 167.096283,923.000000 167.554413,923.038513 
	C167.803192,921.090942 167.813812,919.076355 168.339905,917.206848 
	C171.467758,906.091614 185.944901,901.864075 195.362457,908.783691 
	C206.973892,917.315308 202.151398,932.611389 193.993057,938.993713 
	C186.076569,945.186829 177.243118,948.242615 167.011566,948.105164 
	C152.128845,947.905273 141.252243,938.542969 135.966614,925.780457 
	C129.479309,910.116150 135.144348,897.566833 145.468231,886.015686 
	C153.788315,876.706421 163.777954,869.947693 176.101334,867.556702 
	C181.036682,866.599060 186.313049,867.399048 191.359558,867.399048 
	C189.455154,862.943481 187.164474,859.044067 186.107193,854.834839 
	C183.023819,842.559448 187.760483,831.775146 194.566223,822.224182 
	C201.742828,812.152710 209.711716,802.539307 218.176041,793.515076 
	C233.746719,776.914429 250.269516,761.204102 265.766663,744.537903 
	C280.242188,728.970398 294.061340,712.776428 303.310181,693.286194 
	C308.615601,682.106018 311.780792,670.490662 310.936279,658.045532 
	C310.693237,654.463684 309.683777,650.933899 309.025696,647.380249 
	C309.464874,647.237366 309.904083,647.094421 310.343262,646.951477 
	C312.557495,653.033325 315.039978,659.033020 316.932861,665.213318 
	C321.552338,680.295898 324.333740,695.631226 325.216522,711.509155 
	C326.362274,732.116272 323.710327,751.970093 317.175354,771.377625 
	C310.931763,789.919739 301.617004,806.677063 288.353638,821.294556 
	C277.613098,833.131775 265.621521,842.819885 250.093094,847.395874 
	C242.800461,849.544861 235.674850,849.800354 228.411575,846.166809 
	C216.372070,840.143799 215.067017,826.593689 223.621048,816.975037 
	C226.173615,814.104553 229.425339,811.855835 232.772217,808.963196 
	C224.776947,809.658325 218.110916,812.877563 212.665802,817.991394 
	C200.118988,829.775146 199.868454,845.080505 209.930756,860.245178 
	C218.144257,872.623718 229.939285,879.704041 245.061752,881.047546 
	C266.173492,882.923218 284.037567,875.669800 299.494965,861.909058 
	C311.961456,850.810913 320.591248,836.828064 326.571686,821.451660 
	C328.114960,817.483704 326.019989,812.147156 325.783783,807.429871 
	C325.436768,800.499573 324.644897,793.512878 325.182800,786.639404 
	C325.706757,779.944580 327.542908,773.333801 329.060608,766.745483 
	C329.583466,764.475952 330.882416,762.385132 332.184479,759.389954 
	C333.679749,763.765869 334.854095,767.202576 336.410034,771.755920 
	C338.988129,752.582092 343.852081,735.419983 351.601318,719.163025 
	C352.067566,719.241089 352.533783,719.319153 353.000031,719.397278 
	C353.000031,720.950073 352.854645,722.520508 353.040405,724.050781 
	C353.231323,725.623718 353.745483,727.157410 354.153839,728.856628 
	C358.511871,719.702942 361.987579,710.291199 367.180054,701.947937 
	C377.140320,685.943848 387.793121,670.345642 398.725281,654.982300 
	C404.112244,647.411804 410.196136,640.135925 416.963409,633.792236 
	C429.820740,621.739624 442.755890,609.480469 460.597198,604.799011 
	C462.136627,604.395081 463.699768,604.081787 465.339020,603.706421 
	C465.374115,608.211304 463.062683,609.403137 459.329224,610.455322 
	C449.823273,613.134216 442.412384,619.419556 435.996429,626.636475 
	C426.288025,637.556824 418.441528,649.828369 412.478027,663.147339 
	C405.498444,678.735657 400.424469,694.901917 397.858093,711.928528 
	C395.529053,727.380920 392.035065,742.658813 388.993469,758.001465 
	C388.669128,759.637512 387.935272,761.192383 388.261047,763.467468 
	C391.310394,759.851929 394.359741,756.236328 398.064148,751.844116 
	C397.304718,766.311096 394.298676,779.385376 386.765564,791.641113 
M384.057831,705.496887 
	C367.509125,735.709717 363.642731,770.179565 351.836456,802.042542 
	C356.181519,794.268921 360.115204,786.299500 362.925903,777.952026 
	C370.797729,754.573730 378.219788,731.043579 385.724304,707.543091 
	C385.934631,706.884521 385.069855,705.882690 384.057831,705.496887 
z"/>
<path fill="#FFFFFF" opacity="1.000000" stroke="none" 
	d="
M857.982605,742.129883 
	C859.913879,750.650452 861.827087,758.752991 864.090454,768.338440 
	C865.462402,764.246094 866.456055,761.282349 867.449646,758.318665 
	C867.902161,758.184631 868.354675,758.050659 868.807190,757.916626 
	C870.537659,764.299438 872.844910,770.593872 873.840088,777.089355 
	C874.882812,783.895752 874.999329,790.900513 874.888306,797.808411 
	C874.807983,802.802307 874.173645,807.904846 872.913086,812.730896 
	C871.517029,818.076355 874.187317,822.320496 876.274841,826.260864 
	C882.656921,838.307251 889.615723,850.060425 899.885925,859.442078 
	C910.146484,868.814758 922.121948,875.021240 935.553955,877.857422 
	C948.887878,880.672852 962.275391,880.044128 974.350891,872.845764 
	C987.803650,864.826416 996.432739,853.252319 996.916626,837.065613 
	C997.310059,823.901245 987.823242,813.241272 976.588501,809.046204 
	C973.692566,807.964844 970.610413,807.382080 967.641052,806.577576 
	C971.542480,810.676575 975.692993,814.121460 978.698425,818.375366 
	C986.172241,828.953735 980.201233,840.756714 969.569641,845.013672 
	C960.104919,848.803467 951.121521,846.489075 942.427734,842.721313 
	C926.659668,835.887756 914.857544,824.002380 904.513855,810.809509 
	C894.131653,797.567505 886.719360,782.567200 881.814026,766.413208 
	C877.889709,753.489502 875.813843,740.325867 874.796936,726.789795 
	C873.058655,703.652405 877.468079,681.597473 884.033020,659.741943 
	C885.226990,655.766968 886.937317,651.945129 888.476379,648.079224 
	C888.616516,647.727051 889.248108,647.570496 890.079468,647.060730 
	C889.697510,651.447571 889.144897,655.447266 889.036682,659.458923 
	C888.648865,673.835571 893.564331,686.846252 900.602173,698.934814 
	C909.305054,713.883179 920.038391,727.398987 932.215820,739.745972 
	C947.732666,755.478943 963.413086,771.064148 978.507263,787.195679 
	C987.528625,796.837158 995.879028,807.159180 1003.937012,817.632324 
	C1009.965881,825.468262 1014.621155,834.590454 1014.660278,844.531982 
	C1014.686890,851.274597 1011.566345,858.029602 1009.921265,864.511169 
	C1012.072571,864.622375 1015.716187,864.805969 1019.359314,865.000122 
	C1030.682495,865.603455 1039.924438,870.784546 1048.438965,877.859985 
	C1055.416138,883.657837 1060.830200,890.521240 1064.378418,898.856873 
	C1069.626587,911.186584 1066.119507,922.255981 1058.949097,932.444885 
	C1045.576416,951.447144 1015.616333,950.074097 1001.993530,932.329041 
	C994.096680,922.042664 996.411560,906.435364 1012.405212,903.970093 
	C1024.778198,902.062988 1031.936768,907.952393 1031.999268,920.373535 
	C1032.004272,921.362183 1032.000000,922.350830 1032.000000,923.750610 
	C1036.795410,914.333435 1032.984131,900.707214 1024.146484,893.606140 
	C1009.722900,882.016724 989.460876,881.596863 975.532288,892.388123 
	C964.596741,900.860413 955.818665,911.318970 953.817078,926.133484 
	C952.636658,934.870483 942.693604,943.300598 935.222778,944.069946 
	C920.384216,945.598022 913.270386,936.326111 910.063904,927.683594 
	C906.636780,918.446594 909.692749,907.365967 916.515930,902.669434 
	C911.774780,901.789368 901.900391,904.893738 893.592773,910.982056 
	C886.903320,915.884583 880.895996,921.717896 873.908508,927.720215 
	C869.563293,922.043884 864.600220,915.560486 859.336365,908.684143 
	C865.627869,902.915405 871.753174,897.619934 877.443542,891.892395 
	C879.230225,890.093994 880.592285,887.215759 880.869507,884.691223 
	C881.999695,874.399597 878.843872,864.828735 875.050415,855.435791 
	C871.992432,847.863892 869.063110,840.239197 865.928223,832.699646 
	C864.558716,829.406006 861.438354,829.419495 858.376404,828.922913 
	C841.913147,826.252747 829.020447,817.643494 818.963135,804.538147 
	C818.674133,804.161621 818.503296,803.694397 818.167358,803.062439 
	C821.531250,803.562012 824.707397,804.033752 829.412598,804.732544 
	C808.575134,791.454651 803.794006,771.732605 801.648743,749.466309 
	C805.310852,753.886597 808.292725,757.485840 811.274597,761.085083 
	C811.460938,760.929321 811.647217,760.773621 811.833496,760.617859 
	C810.094910,753.478577 808.108521,746.388184 806.685425,739.186584 
	C805.177917,731.558105 803.942078,723.854126 803.054871,716.129456 
	C801.186646,699.863647 797.135254,684.180237 790.970398,669.055725 
	C785.601746,655.884644 778.808411,643.516418 770.072632,632.192200 
	C761.596130,621.204285 752.374634,611.484314 738.377991,607.579712 
	C736.522522,607.062134 735.252502,604.446045 733.711426,602.801819 
	C734.077698,602.160461 734.443970,601.519165 734.810242,600.877808 
	C741.142273,603.367554 748.192017,604.813721 753.653198,608.569702 
	C764.215149,615.833679 774.776306,623.518616 783.731384,632.611145 
	C801.768616,650.925171 817.069092,671.562622 829.486145,694.141357 
	C834.809937,703.822021 839.186096,714.022461 844.083496,723.941956 
	C844.396606,724.576050 845.494934,724.822388 846.730469,725.541626 
	C846.730469,722.522461 846.730469,720.101135 846.730469,717.679749 
	C853.264893,724.524719 854.539856,733.605713 857.982605,742.129883 
M823.452942,733.966675 
	C830.636108,755.883179 835.831482,778.546265 847.857727,798.653137 
	C835.670166,766.443298 832.550659,731.034241 813.671936,701.177795 
	C813.219421,701.762207 813.107300,702.242004 813.235779,702.645264 
	C816.486328,712.849426 819.762146,723.045654 823.452942,733.966675 
z"/>
<path fill="#FFFFFF" opacity="1.000000" stroke="none" 
	d="
M651.750244,1559.618530 
	C646.504944,1575.993896 637.763550,1589.980103 628.071045,1603.516602 
	C618.358215,1617.081665 609.010132,1630.908081 599.916321,1644.022705 
	C586.849121,1624.889404 572.829224,1605.436035 559.995850,1585.229126 
	C549.784485,1569.150879 543.653870,1551.458130 544.942200,1531.846436 
	C545.382141,1525.149292 552.842651,1516.053589 560.398987,1515.187134 
	C567.577393,1514.364136 575.023254,1514.044678 580.146057,1521.437134 
	C583.979004,1526.968262 583.814453,1532.332642 580.975769,1537.803345 
	C578.343262,1542.876587 573.609070,1544.394775 568.132385,1544.008179 
	C567.305298,1543.949707 566.470581,1544.000000 565.542114,1544.000000 
	C570.214600,1548.513184 575.877258,1548.630981 581.298584,1544.129517 
	C588.139465,1538.449219 592.200623,1526.981812 588.589905,1517.168945 
	C588.142029,1515.951660 586.955017,1514.367188 585.853027,1514.125244 
	C566.440308,1509.861328 553.636353,1496.998047 544.149170,1480.782227 
	C535.076233,1465.274536 527.500244,1448.898560 518.948730,1433.075928 
	C512.568054,1421.270142 506.766174,1408.907471 496.304993,1399.973511 
	C490.878571,1395.339111 484.661469,1391.630493 478.058105,1386.980103 
	C478.902252,1365.184692 471.037262,1345.651001 453.435974,1330.053101 
	C472.883850,1336.201172 492.331726,1342.349243 512.081604,1348.592773 
	C510.083649,1354.892700 508.075439,1361.224976 506.045258,1367.626465 
	C522.770447,1364.872070 537.933838,1382.236816 541.505676,1394.163818 
	C542.515015,1397.534424 542.608398,1401.573242 541.830078,1405.013306 
	C539.250732,1416.412964 541.544067,1426.726318 548.443604,1435.773071 
	C556.164856,1445.897339 569.663208,1446.480713 579.139160,1440.303711 
	C584.785217,1436.623291 584.245605,1430.811157 582.875122,1425.494873 
	C580.595032,1416.650391 576.922913,1408.507324 568.749756,1403.162598 
	C563.288208,1399.591187 557.633667,1399.296265 551.606201,1400.843628 
	C556.151733,1386.722656 572.663513,1367.288696 585.822754,1363.466675 
	C604.610535,1358.010132 625.842773,1364.580566 636.795898,1380.500488 
	C641.223328,1386.935669 645.137756,1393.723877 649.747253,1401.088989 
	C634.539978,1397.012817 624.594238,1405.325684 619.107971,1419.389404 
	C617.504578,1423.499390 616.039490,1428.173828 616.407349,1432.425415 
	C616.991089,1439.171387 623.596252,1443.352783 630.978210,1444.074585 
	C645.975891,1445.541138 655.149536,1435.176514 657.802246,1422.153076 
	C658.972778,1416.406128 658.507080,1410.170654 657.897888,1404.248169 
	C656.612854,1391.755371 662.832397,1382.780762 671.491638,1375.428589 
	C675.707275,1371.849243 681.473206,1369.963013 686.748291,1367.832520 
	C688.735229,1367.029907 691.317932,1367.702271 693.884155,1367.702271 
	C691.881104,1361.319458 689.895996,1354.993774 687.890625,1348.603394 
	C707.535950,1342.392090 727.036133,1336.226685 745.053955,1330.529907 
	C739.582214,1338.457153 732.436096,1346.808105 727.625305,1356.338013 
	C722.725037,1366.044800 721.041321,1377.067627 722.158875,1388.340210 
	C707.075195,1393.594604 697.152954,1404.526611 689.774414,1417.821167 
	C682.138000,1431.580200 675.299683,1445.780518 668.007507,1459.732910 
	C660.495178,1474.106689 652.790283,1488.358032 640.809570,1499.714111 
	C633.509583,1506.633545 625.014587,1511.325317 615.357239,1514.049927 
	C614.129639,1514.396240 612.606445,1515.182617 612.056274,1516.212036 
	C606.747681,1526.144775 612.587280,1540.859619 620.578918,1545.199341 
	C626.162292,1548.231323 628.755493,1548.510986 634.273254,1544.794678 
	C630.727478,1543.908936 626.967224,1543.195923 623.360168,1542.014893 
	C618.142822,1540.306641 616.127075,1532.155029 617.124146,1526.822754 
	C618.137085,1521.405518 624.471191,1515.449097 629.779541,1515.051880 
	C640.763550,1514.229980 648.797729,1515.164062 653.832581,1528.503174 
	C655.817017,1533.760376 655.140991,1540.220093 654.818298,1546.084961 
	C654.574463,1550.516724 652.967163,1554.873291 651.750244,1559.618530 
M617.183167,1461.712402 
	C611.237427,1457.619995 605.291626,1453.527710 599.095581,1449.263062 
	C591.373596,1458.552124 581.614990,1464.606323 567.614319,1462.745117 
	C575.185669,1475.867676 584.004578,1486.588745 595.464417,1495.241211 
	C599.003418,1497.913208 601.373413,1498.299927 604.520996,1495.126221 
	C610.579529,1489.017578 617.113586,1483.356201 622.885925,1476.996948 
	C626.492920,1473.023193 629.068237,1468.112793 632.199768,1463.484863 
	C626.984253,1462.933716 622.479370,1462.457642 617.183167,1461.712402 
z"/>
<path fill="#FFFFFF" opacity="1.000000" stroke="none" 
	d="
M762.735962,1238.334473 
	C756.288940,1223.803833 754.383484,1208.645264 752.776001,1193.054321 
	C741.880615,1201.876587 736.464478,1213.663452 732.010986,1226.078613 
	C725.031982,1245.534180 725.811401,1265.762451 726.057800,1285.925293 
	C726.091064,1288.652588 726.886902,1291.370605 727.367859,1294.327881 
	C717.885254,1298.417480 708.709778,1302.374634 699.251587,1306.453735 
	C698.130432,1289.275513 700.151611,1273.092041 703.461548,1256.978394 
	C707.002075,1239.741943 712.440918,1223.049561 720.467773,1207.534058 
	C726.797852,1195.298096 735.017822,1183.980469 742.988892,1172.671265 
	C749.839294,1162.952148 758.848450,1155.192505 768.834412,1148.780396 
	C775.355469,1144.593262 782.333496,1141.117798 789.106873,1137.323486 
	C789.330688,1137.657837 789.554565,1137.992188 789.778381,1138.326538 
	C787.781799,1143.087402 785.678894,1147.806885 783.807800,1152.616577 
	C777.375610,1169.150635 779.750244,1185.356323 785.815918,1201.390381 
	C790.189758,1212.951904 796.379089,1223.437500 804.337280,1232.907959 
	C805.644165,1234.463379 806.675537,1236.100708 804.393250,1238.293579 
	C798.809387,1243.658447 793.685547,1249.499390 788.166809,1254.935791 
	C785.423096,1257.638550 782.217529,1259.872559 779.049072,1262.458862 
	C771.648315,1255.539429 765.952393,1248.028320 762.735962,1238.334473 
z"/>
<path fill="#FFFFFF" opacity="1.000000" stroke="none" 
	d="
M453.274780,1198.771240 
	C451.619781,1196.700439 450.230591,1194.883667 448.841370,1193.066895 
	C448.309113,1193.330811 447.776886,1193.594727 447.244629,1193.858643 
	C444.505707,1218.805298 440.410461,1243.224121 421.202698,1262.526123 
	C417.938477,1259.926270 414.598663,1257.686646 411.770081,1254.923584 
	C406.346283,1249.625610 401.323761,1243.917358 395.908142,1238.610474 
	C393.500122,1236.250732 394.268280,1234.637329 395.996704,1232.466187 
	C406.642029,1219.094971 414.639618,1204.498413 418.258606,1187.519531 
	C421.065582,1174.349976 420.290009,1161.780884 415.030609,1149.456055 
	C413.469147,1145.796997 411.741760,1142.208740 410.586853,1137.526489 
	C417.109955,1140.902588 424.132660,1143.583862 430.032837,1147.826294 
	C437.842377,1153.441528 445.339172,1159.740112 451.965118,1166.701782 
	C465.907623,1181.350708 475.818451,1198.778809 483.945312,1217.186279 
	C491.108826,1233.411621 495.949402,1250.459106 498.756958,1267.887939 
	C500.759888,1280.322021 500.795685,1293.072876 501.797333,1306.898071 
	C491.394348,1302.417480 482.329163,1298.513184 474.000000,1294.925903 
	C474.000000,1282.386230 474.616486,1270.128418 473.861053,1257.955811 
	C472.607269,1237.752686 468.158997,1218.373535 455.392120,1201.848511 
	C454.706085,1200.960693 454.154663,1199.968750 453.274780,1198.771240 
z"/>
<path fill="#FFFFFF" opacity="1.000000" stroke="none" 
	d="
M801.098999,1041.389282 
	C795.699219,1042.991211 790.560913,1044.289062 785.114624,1045.664795 
	C791.017944,1047.467773 796.837463,1049.113770 802.549866,1051.072510 
	C804.195923,1051.636963 806.266235,1052.781128 806.890747,1054.207275 
	C810.417358,1062.262085 813.563049,1070.483765 817.305542,1079.812622 
	C778.220398,1074.687988 741.371826,1067.567261 717.944031,1029.788086 
	C745.102722,1031.735596 768.655151,1025.871216 788.141663,1005.304565 
	C792.703918,1017.653564 797.032227,1029.369507 801.098999,1041.389282 
z"/>
<path fill="#FFFFFF" opacity="1.000000" stroke="none" 
	d="
M402.001007,1030.994507 
	C405.284882,1022.445801 408.531647,1014.293579 412.005981,1005.570007 
	C431.082855,1025.589844 454.512787,1031.842773 481.382965,1029.738403 
	C475.382690,1041.225586 467.756287,1050.261230 457.492188,1056.805786 
	C440.471954,1067.658203 421.821594,1074.218872 401.836182,1077.003174 
	C395.729706,1077.853882 389.624817,1078.715942 382.733734,1079.682983 
	C386.408661,1070.555542 389.567841,1062.339844 393.096741,1054.286255 
	C393.727631,1052.846436 395.737793,1051.638184 397.370239,1051.077393 
	C403.084381,1049.114624 408.911896,1047.482056 414.918518,1045.656494 
	C409.177124,1044.215210 403.798706,1042.865112 397.890472,1041.382080 
	C399.398407,1037.683472 400.681183,1034.537231 402.001007,1030.994507 
z"/>
<path fill="#FFFFFF" opacity="1.000000" stroke="none" 
	d="
M227.066193,1219.138062 
	C227.366837,1218.690308 227.906357,1218.527832 227.956909,1218.623535 
	C228.126022,1218.943726 228.120255,1219.356079 228.181458,1219.733154 
	C227.814651,1219.669312 227.447861,1219.605469 227.066193,1219.138062 
z"/>
<path fill="#000000" opacity="1.000000" stroke="none" 
	d="
M617.740356,233.361664 
	C624.357727,247.303299 630.859436,260.812408 634.488708,275.626465 
	C636.991699,285.843262 634.490540,294.884796 631.006714,304.005341 
	C623.265137,324.272034 612.294983,342.828613 600.130981,361.940704 
	C597.035339,357.276215 594.113647,353.312164 591.648438,349.082062 
	C581.768799,332.129486 572.265137,314.992035 566.035156,296.251251 
	C563.295166,288.009064 563.888794,279.681152 566.250793,271.767212 
	C573.453918,247.633255 585.735413,225.929855 600.113770,203.653198 
	C606.249207,214.004852 611.891541,223.524445 617.740356,233.361664 
z"/>
<path fill="#000000" opacity="1.000000" stroke="none" 
	d="
M593.729614,1182.765503 
	C595.934570,1181.025635 597.876282,1179.541260 598.782593,1178.848389 
	C610.184570,1185.077515 620.993591,1191.249878 632.077332,1196.881714 
	C635.585938,1198.664429 639.892761,1198.813110 643.698547,1200.108398 
	C645.010132,1200.554688 646.834717,1202.192383 646.859802,1203.320435 
	C647.326965,1224.401489 641.504883,1243.435425 628.390808,1260.214600 
	C621.391174,1269.170410 613.003967,1276.281372 602.965637,1281.421753 
	C601.269775,1282.290161 598.368591,1282.702637 596.902344,1281.837524 
	C574.390137,1268.554810 559.642029,1249.526489 555.049683,1223.416138 
	C553.918945,1216.986694 553.502930,1210.412842 553.138977,1203.884155 
	C553.069885,1202.643799 554.676575,1200.283325 555.709290,1200.164062 
	C568.764771,1198.655640 579.474854,1191.887817 590.252808,1185.227905 
	C591.356934,1184.545532 592.396667,1183.759033 593.729614,1182.765503 
z"/>
<path fill="#000000" opacity="1.000000" stroke="none" 
	d="
M578.270142,1007.593140 
	C575.133362,991.392700 573.919800,975.377808 575.156677,959.409485 
	C576.833191,937.765320 582.873413,917.512451 598.329041,901.189453 
	C598.767151,900.726746 599.303345,900.356934 600.009644,899.761963 
	C608.277771,906.640198 612.800903,915.837097 616.959351,925.232422 
	C625.528625,944.593567 626.501892,965.235474 624.654724,985.681763 
	C623.187744,1001.920044 618.673340,1017.883118 615.508545,1033.967773 
	C615.015442,1036.473877 614.503601,1038.976196 613.899719,1041.981567 
	C624.968384,1039.254517 635.645935,1038.019409 645.029663,1045.134644 
	C648.191223,1047.531860 650.328491,1051.279907 652.336548,1055.019653 
	C645.090698,1050.724243 637.819336,1047.674683 629.492065,1048.015381 
	C620.281799,1048.391968 611.863770,1050.952393 605.040405,1057.495239 
	C601.740784,1060.659058 598.685059,1060.602051 595.106323,1057.693481 
	C582.190552,1047.196411 568.174988,1044.624756 552.978394,1052.550903 
	C551.148743,1053.505127 549.541260,1054.885376 547.675537,1056.175659 
	C550.217712,1042.508179 567.521545,1036.426025 586.176392,1042.151489 
	C583.546021,1030.475708 581.011963,1019.227539 578.270142,1007.593140 
z"/>
<path fill="#000000" opacity="1.000000" stroke="none" 
	d="
M660.883179,937.891235 
	C660.510254,938.305176 659.947693,938.528687 659.385071,938.752197 
	C659.537048,938.415405 659.689026,938.078674 660.057922,937.552979 
	C660.414429,937.476318 660.554016,937.588623 660.883179,937.891235 
z"/>
<path fill="#000000" opacity="1.000000" stroke="none" 
	d="
M924.253235,1305.385132 
	C933.433228,1298.810913 942.269287,1291.677856 951.861267,1285.772705 
	C975.581848,1271.169678 1001.325073,1260.649536 1026.785889,1249.538452 
	C1047.295776,1240.587646 1067.497070,1230.718018 1084.852417,1216.358276 
	C1093.118042,1209.519287 1099.926514,1200.920776 1107.420532,1193.143677 
	C1107.942139,1192.602417 1108.675049,1192.264893 1109.309692,1191.832520 
	C1109.706421,1192.139282 1110.103149,1192.445923 1110.499756,1192.752563 
	C1107.069092,1197.598633 1103.908081,1202.664795 1100.161987,1207.253418 
	C1081.395752,1230.240234 1056.199219,1244.262329 1029.923584,1256.459717 
	C1002.881470,1269.012817 975.415894,1280.651733 948.319214,1293.090698 
	C940.486755,1296.686035 933.287231,1301.659912 925.237061,1305.859619 
	C924.535522,1305.606812 924.394409,1305.495972 924.253235,1305.385132 
z"/>
<path fill="#000000" opacity="1.000000" stroke="none" 
	d="
M924.875732,1305.898682 
	C924.125671,1306.572876 923.176514,1307.065796 922.227356,1307.558716 
	C922.099182,1307.287964 921.971008,1307.017334 921.842834,1306.746582 
	C922.452698,1306.450439 923.062561,1306.154297 923.962891,1305.621582 
	C924.394409,1305.495972 924.535522,1305.606812 924.875732,1305.898682 
z"/>
<path fill="#000000" opacity="1.000000" stroke="none" 
	d="
M921.138062,1308.933838 
	C920.690369,1308.633301 920.527893,1308.093872 920.623535,1308.043091 
	C920.943604,1307.874146 921.356018,1307.880005 921.733032,1307.818726 
	C921.669189,1308.185547 921.605347,1308.552246 921.138062,1308.933838 
z"/>
<path fill="#000000" opacity="1.000000" stroke="none" 
	d="
M244.638580,1283.238037 
	C254.000092,1289.633545 263.063873,1295.791992 272.067963,1302.036377 
	C273.627563,1303.117798 274.934479,1304.563477 275.806519,1306.677002 
	C274.923859,1306.326538 273.944397,1306.120728 273.172638,1305.604492 
	C255.468399,1293.760742 236.122025,1285.218750 216.646408,1276.798218 
	C194.279480,1267.127808 172.013000,1257.158936 150.151093,1246.408203 
	C133.654709,1238.295898 118.531914,1227.721680 105.904907,1214.198608 
	C99.494476,1207.333374 94.185844,1199.439331 88.379166,1192.010376 
	C88.883797,1191.584717 89.388428,1191.159058 89.893066,1190.733521 
	C92.177635,1193.238525 94.659874,1195.592285 96.712662,1198.274780 
	C105.792557,1210.139648 117.255981,1219.551147 129.991486,1226.751099 
	C147.677353,1236.750000 166.246552,1245.198853 184.520615,1254.141846 
	C204.404465,1263.872314 224.383286,1273.408813 244.638580,1283.238037 
z"/>
<path fill="#000000" opacity="1.000000" stroke="none" 
	d="
M384.382111,705.268921 
	C385.069855,705.882690 385.934631,706.884521 385.724304,707.543091 
	C378.219788,731.043579 370.797729,754.573730 362.925903,777.952026 
	C360.115204,786.299500 356.181519,794.268921 351.836456,802.042542 
	C363.642731,770.179565 367.509125,735.709717 384.382111,705.268921 
z"/>
<path fill="#000000" opacity="1.000000" stroke="none" 
	d="
M823.243286,733.604980 
	C819.762146,723.045654 816.486328,712.849426 813.235779,702.645264 
	C813.107300,702.242004 813.219421,701.762207 813.671936,701.177795 
	C832.550659,731.034241 835.670166,766.443298 847.857727,798.653137 
	C835.831482,778.546265 830.636108,755.883179 823.243286,733.604980 
z"/>
<path fill="#000000" opacity="1.000000" stroke="none" 
	d="
M617.578857,1461.846924 
	C622.479370,1462.457642 626.984253,1462.933716 632.199768,1463.484863 
	C629.068237,1468.112793 626.492920,1473.023193 622.885925,1476.996948 
	C617.113586,1483.356201 610.579529,1489.017578 604.520996,1495.126221 
	C601.373413,1498.299927 599.003418,1497.913208 595.464417,1495.241211 
	C584.004578,1486.588745 575.185669,1475.867676 567.614319,1462.745117 
	C581.614990,1464.606323 591.373596,1458.552124 599.095581,1449.263062 
	C605.291626,1453.527710 611.237427,1457.619995 617.578857,1461.846924 
z"/>
</svg>